<svg width="25" height="875" viewBox="0 0 25 875" fill="none" xmlns="http://www.w3.org/2000/svg">
<path d="M9.836 116.244C9.5 116.244 9.332 116.352 9.248 116.556C9.2 116.664 9.188 116.94 9.164 117.18H8.684V113.736H9.164C9.176 113.892 9.188 114.228 9.248 114.348C9.32 114.576 9.512 114.66 9.836 114.66H15.848C16.184 114.66 16.352 114.564 16.436 114.348C16.484 114.24 16.496 113.976 16.52 113.736H17V117.18H16.52C16.508 117.012 16.496 116.688 16.436 116.556C16.364 116.34 16.172 116.244 15.848 116.244H12.98V119.916H15.848C16.184 119.916 16.352 119.808 16.436 119.592C16.484 119.484 16.496 119.22 16.52 118.98H17V122.424H16.52C16.508 122.268 16.496 121.932 16.436 121.812C16.364 121.584 16.172 121.5 15.848 121.5H9.836C9.5 121.5 9.332 121.596 9.248 121.812C9.2 121.92 9.188 122.184 9.164 122.424H8.684V118.98H9.164C9.176 119.148 9.188 119.472 9.248 119.604C9.32 119.82 9.512 119.916 9.836 119.916H12.356V116.244H9.836ZM13.148 108.113H15.812C16.412 108.113 16.568 107.849 16.568 107.357C16.568 107.297 16.568 107.237 16.556 107.153H16.88C17.012 107.453 17.144 107.801 17.144 108.305C17.144 109.265 16.724 109.541 16.112 109.541H16.1C16.7 109.925 17.132 110.597 17.132 111.341C17.132 112.181 16.592 112.817 15.704 112.817C14.804 112.817 14.3 112.169 14.012 110.957L13.676 109.541H13.424C12.464 109.541 12.092 109.829 12.092 110.765C12.092 111.281 12.2 112.025 12.344 112.637H11.708C11.288 111.857 11.024 110.849 11.024 110.021C11.024 108.773 11.648 108.113 13.148 108.113ZM15.296 111.437C15.8 111.437 16.088 111.137 16.088 110.537C16.088 110.201 15.98 109.805 15.848 109.541H14.216L14.408 110.297C14.6 111.053 14.804 111.437 15.296 111.437ZM12.224 105.91C11.852 105.91 11.732 105.982 11.732 106.366C11.732 106.498 11.744 106.726 11.756 106.846H11.336C11.192 106.438 10.988 105.622 10.988 105.142C10.988 104.638 11.228 104.482 11.732 104.482H11.948C11.252 103.858 11.024 103.234 11.024 102.61C11.024 101.302 12.044 100.402 13.736 100.402C15.872 100.402 17.168 101.83 17.168 103.87C17.168 104.098 17.156 104.29 17.132 104.482H18.488C18.848 104.482 19.04 104.362 19.088 104.074C19.112 103.99 19.124 103.606 19.136 103.402H19.604V106.714H19.16C19.148 106.546 19.136 106.354 19.076 106.222C19.004 106.006 18.824 105.91 18.488 105.91H12.224ZM12.02 103.378C12.02 103.69 12.092 104.038 12.308 104.482H16.268C16.388 104.182 16.472 103.81 16.472 103.438C16.472 102.298 15.44 101.806 14.132 101.806C12.764 101.806 12.02 102.358 12.02 103.378ZM12.224 98.7503C11.852 98.7503 11.732 98.8223 11.732 99.2063C11.732 99.3383 11.744 99.5663 11.756 99.6863H11.336C11.192 99.2783 10.988 98.4623 10.988 97.9823C10.988 97.4783 11.228 97.3223 11.732 97.3223H11.948C11.252 96.6983 11.024 96.0743 11.024 95.4503C11.024 94.1423 12.044 93.2423 13.736 93.2423C15.872 93.2423 17.168 94.6703 17.168 96.7103C17.168 96.9383 17.156 97.1303 17.132 97.3223H18.488C18.848 97.3223 19.04 97.2023 19.088 96.9143C19.112 96.8303 19.124 96.4463 19.136 96.2423H19.604V99.5543H19.16C19.148 99.3863 19.136 99.1943 19.076 99.0623C19.004 98.8463 18.824 98.7503 18.488 98.7503H12.224ZM12.02 96.2183C12.02 96.5303 12.092 96.8783 12.308 97.3223H16.268C16.388 97.0223 16.472 96.6503 16.472 96.2783C16.472 95.1383 15.44 94.6463 14.132 94.6463C12.764 94.6463 12.02 95.1983 12.02 96.2183ZM11.168 86.3428H11.54C11.636 86.7628 11.984 87.0748 12.404 87.2548L15.62 88.6588V88.6468L17.024 89.2588C17.816 89.5948 19.712 90.3388 19.712 92.0548C19.712 92.4748 19.472 92.6908 19.16 92.6908C18.788 92.6908 18.524 92.4628 18.524 92.0908C18.524 90.8308 18.308 90.4468 17.084 89.9068L12.188 91.9588C11.756 92.1388 11.588 92.4388 11.54 92.7628H11.168V89.7868H11.54C11.54 90.2548 11.78 90.5188 12.116 90.3988L15.296 89.1868L12.644 88.0948C11.972 87.8068 11.612 88.1188 11.54 88.7068H11.168L11.168 86.3428ZM12.224 83.0003C11.852 83.0003 11.732 83.0723 11.732 83.4563C11.732 83.5883 11.744 83.8163 11.756 83.9363H11.336C11.192 83.5283 10.988 82.7123 10.988 82.2323C10.988 81.7283 11.228 81.5723 11.732 81.5723H11.948C11.252 80.9483 11.024 80.3243 11.024 79.7003C11.024 78.3923 12.044 77.4923 13.736 77.4923C15.872 77.4923 17.168 78.9203 17.168 80.9603C17.168 81.1883 17.156 81.3803 17.132 81.5723H18.488C18.848 81.5723 19.04 81.4523 19.088 81.1643C19.112 81.0803 19.124 80.6963 19.136 80.4923H19.604V83.8043H19.16C19.148 83.6363 19.136 83.4443 19.076 83.3123C19.004 83.0963 18.824 83.0003 18.488 83.0003H12.224ZM12.02 80.4683C12.02 80.7803 12.092 81.1283 12.308 81.5723H16.268C16.388 81.2723 16.472 80.9003 16.472 80.5283C16.472 79.3883 15.44 78.8963 14.132 78.8963C12.764 78.8963 12.02 79.4483 12.02 80.4683ZM15.884 75.9002H9.128C8.756 75.9002 8.636 75.9722 8.624 76.3202C8.624 76.4642 8.648 76.7042 8.66 76.8362H8.24C8.096 76.4282 7.892 75.6122 7.892 75.1442C7.892 74.6282 8.12 74.4722 8.624 74.4722H11.96C11.384 73.8722 10.988 73.1642 10.988 72.3602C10.988 71.2922 11.576 70.7162 13.016 70.7162H15.884C16.22 70.7162 16.388 70.6202 16.472 70.4042C16.52 70.2962 16.532 70.1642 16.556 69.9242H17V72.9482H16.556C16.544 72.7802 16.532 72.5882 16.472 72.4562C16.4 72.2402 16.22 72.1442 15.884 72.1442H13.412C12.512 72.1442 12.02 72.3602 12.02 73.3082C12.02 73.7162 12.104 74.0162 12.26 74.4722H15.884C16.22 74.4722 16.388 74.3762 16.472 74.1602C16.52 74.0522 16.532 73.9202 16.556 73.6802H17V76.7042H16.556C16.544 76.5362 16.532 76.3442 16.472 76.2122C16.4 75.9962 16.22 75.9002 15.884 75.9002ZM13.808 63.1888C15.596 63.1888 17.18 64.4008 17.18 66.3688C17.18 68.0008 16.1 69.1408 14.3 69.1408C12.296 69.1408 10.988 67.7248 10.988 65.9488C10.988 64.2928 12.104 63.1888 13.808 63.1888ZM14.204 64.7488C12.704 64.7488 11.684 65.1688 11.684 66.2728C11.684 67.2928 12.56 67.5928 13.856 67.5928C15.344 67.5928 16.484 67.1968 16.484 66.0928C16.484 65.1688 15.668 64.7488 14.204 64.7488ZM11.816 62.575H11.228V61.531H10.004L9.356 60.319V60.103H11.228V58.447H11.816V60.103H14.972C15.968 60.103 16.256 59.839 16.256 58.975C16.256 58.795 16.22 58.555 16.172 58.327H16.724C16.94 58.639 17.144 59.251 17.144 59.839C17.144 60.787 16.772 61.531 15.704 61.531H11.816V62.575ZM13.808 51.6693C15.596 51.6693 17.18 52.8813 17.18 54.8493C17.18 56.4813 16.1 57.6213 14.3 57.6213C12.296 57.6213 10.988 56.2053 10.988 54.4293C10.988 52.7733 12.104 51.6693 13.808 51.6693ZM14.204 53.2293C12.704 53.2293 11.684 53.6493 11.684 54.7533C11.684 55.7733 12.56 56.0733 13.856 56.0733C15.344 56.0733 16.484 55.6773 16.484 54.5733C16.484 53.6493 15.668 53.2293 14.204 53.2293Z" fill="black"/>
<path d="M6.5 168.417H17.5L12 149.944" fill="black"/>
<path d="M17.5 204.572V205.861H9.98242L10.5566 207.437L9.51953 207.841L8.71094 205.609V204.572H17.5ZM17.5 197.118V202.509H16.7148C16.0977 201.794 15.5391 201.189 15.0391 200.693C14.5391 200.197 14.082 199.796 13.668 199.492C13.2539 199.183 12.8672 198.958 12.5078 198.818C12.1445 198.673 11.793 198.601 11.4531 198.601C11.0977 198.601 10.7852 198.667 10.5156 198.8C10.2461 198.933 10.0371 199.12 9.88867 199.363C9.74023 199.601 9.66602 199.876 9.66602 200.189C9.66602 200.548 9.76953 200.892 9.97656 201.22C10.1797 201.548 10.4609 201.82 10.8203 202.035L10.0117 202.72C9.54297 202.404 9.17969 202.003 8.92188 201.519C8.66406 201.031 8.53516 200.511 8.53516 199.96C8.53516 199.449 8.64844 198.992 8.875 198.589C9.09766 198.183 9.4082 197.865 9.80664 197.634C10.2051 197.4 10.6699 197.283 11.2012 197.283C11.6113 197.283 12.0312 197.357 12.4609 197.505C12.8867 197.654 13.3184 197.874 13.7559 198.167C14.1895 198.456 14.625 198.816 15.0625 199.245C15.5 199.671 15.9355 200.16 16.3691 200.71V197.118H17.5Z" fill="black"/>
<path d="M9.836 482.577C9.5 482.577 9.332 482.685 9.248 482.889C9.2 482.997 9.188 483.273 9.164 483.513H8.684V480.069H9.164C9.176 480.225 9.188 480.561 9.248 480.681C9.32 480.909 9.512 480.993 9.836 480.993H15.848C16.184 480.993 16.352 480.897 16.436 480.681C16.484 480.573 16.496 480.309 16.52 480.069H17V483.513H16.52C16.508 483.345 16.496 483.021 16.436 482.889C16.364 482.673 16.172 482.577 15.848 482.577H12.98V486.249H15.848C16.184 486.249 16.352 486.141 16.436 485.925C16.484 485.817 16.496 485.553 16.52 485.313H17V488.757H16.52C16.508 488.601 16.496 488.265 16.436 488.145C16.364 487.917 16.172 487.833 15.848 487.833H9.836C9.5 487.833 9.332 487.929 9.248 488.145C9.2 488.253 9.188 488.517 9.164 488.757H8.684V485.313H9.164C9.176 485.481 9.188 485.805 9.248 485.937C9.32 486.153 9.512 486.249 9.836 486.249H12.356V482.577H9.836ZM13.148 474.446H15.812C16.412 474.446 16.568 474.182 16.568 473.69C16.568 473.63 16.568 473.57 16.556 473.486H16.88C17.012 473.786 17.144 474.134 17.144 474.638C17.144 475.598 16.724 475.874 16.112 475.874H16.1C16.7 476.258 17.132 476.93 17.132 477.674C17.132 478.514 16.592 479.15 15.704 479.15C14.804 479.15 14.3 478.502 14.012 477.29L13.676 475.874H13.424C12.464 475.874 12.092 476.162 12.092 477.098C12.092 477.614 12.2 478.358 12.344 478.97H11.708C11.288 478.19 11.024 477.182 11.024 476.354C11.024 475.106 11.648 474.446 13.148 474.446ZM15.296 477.77C15.8 477.77 16.088 477.47 16.088 476.87C16.088 476.534 15.98 476.138 15.848 475.874H14.216L14.408 476.63C14.6 477.386 14.804 477.77 15.296 477.77ZM12.224 472.244C11.852 472.244 11.732 472.316 11.732 472.7C11.732 472.832 11.744 473.06 11.756 473.18H11.336C11.192 472.772 10.988 471.956 10.988 471.476C10.988 470.972 11.228 470.816 11.732 470.816H11.948C11.252 470.192 11.024 469.568 11.024 468.944C11.024 467.636 12.044 466.736 13.736 466.736C15.872 466.736 17.168 468.164 17.168 470.204C17.168 470.432 17.156 470.624 17.132 470.816H18.488C18.848 470.816 19.04 470.696 19.088 470.408C19.112 470.324 19.124 469.94 19.136 469.736H19.604V473.048H19.16C19.148 472.88 19.136 472.688 19.076 472.556C19.004 472.34 18.824 472.244 18.488 472.244H12.224ZM12.02 469.712C12.02 470.024 12.092 470.372 12.308 470.816H16.268C16.388 470.516 16.472 470.144 16.472 469.772C16.472 468.632 15.44 468.14 14.132 468.14C12.764 468.14 12.02 468.692 12.02 469.712ZM12.224 465.084C11.852 465.084 11.732 465.156 11.732 465.54C11.732 465.672 11.744 465.9 11.756 466.02H11.336C11.192 465.612 10.988 464.796 10.988 464.316C10.988 463.812 11.228 463.656 11.732 463.656H11.948C11.252 463.032 11.024 462.408 11.024 461.784C11.024 460.476 12.044 459.576 13.736 459.576C15.872 459.576 17.168 461.004 17.168 463.044C17.168 463.272 17.156 463.464 17.132 463.656H18.488C18.848 463.656 19.04 463.536 19.088 463.248C19.112 463.164 19.124 462.78 19.136 462.576H19.604V465.888H19.16C19.148 465.72 19.136 465.528 19.076 465.396C19.004 465.18 18.824 465.084 18.488 465.084H12.224ZM12.02 462.552C12.02 462.864 12.092 463.212 12.308 463.656H16.268C16.388 463.356 16.472 462.984 16.472 462.612C16.472 461.472 15.44 460.98 14.132 460.98C12.764 460.98 12.02 461.532 12.02 462.552ZM11.168 452.676H11.54C11.636 453.096 11.984 453.408 12.404 453.588L15.62 454.992V454.98L17.024 455.592C17.816 455.928 19.712 456.672 19.712 458.388C19.712 458.808 19.472 459.024 19.16 459.024C18.788 459.024 18.524 458.796 18.524 458.424C18.524 457.164 18.308 456.78 17.084 456.24L12.188 458.292C11.756 458.472 11.588 458.772 11.54 459.096H11.168V456.12H11.54C11.54 456.588 11.78 456.852 12.116 456.732L15.296 455.52L12.644 454.428C11.972 454.14 11.612 454.452 11.54 455.04H11.168L11.168 452.676ZM12.224 449.334C11.852 449.334 11.732 449.406 11.732 449.79C11.732 449.922 11.744 450.15 11.756 450.27H11.336C11.192 449.862 10.988 449.046 10.988 448.566C10.988 448.062 11.228 447.906 11.732 447.906H11.948C11.252 447.282 11.024 446.658 11.024 446.034C11.024 444.726 12.044 443.826 13.736 443.826C15.872 443.826 17.168 445.254 17.168 447.294C17.168 447.522 17.156 447.714 17.132 447.906H18.488C18.848 447.906 19.04 447.786 19.088 447.498C19.112 447.414 19.124 447.03 19.136 446.826H19.604V450.138H19.16C19.148 449.97 19.136 449.778 19.076 449.646C19.004 449.43 18.824 449.334 18.488 449.334H12.224ZM12.02 446.802C12.02 447.114 12.092 447.462 12.308 447.906H16.268C16.388 447.606 16.472 447.234 16.472 446.862C16.472 445.722 15.44 445.23 14.132 445.23C12.764 445.23 12.02 445.782 12.02 446.802ZM15.884 442.234H9.128C8.756 442.234 8.636 442.306 8.624 442.654C8.624 442.798 8.648 443.038 8.66 443.17H8.24C8.096 442.762 7.892 441.946 7.892 441.478C7.892 440.962 8.12 440.806 8.624 440.806H11.96C11.384 440.206 10.988 439.498 10.988 438.694C10.988 437.626 11.576 437.05 13.016 437.05H15.884C16.22 437.05 16.388 436.954 16.472 436.738C16.52 436.63 16.532 436.498 16.556 436.257H17V439.282H16.556C16.544 439.114 16.532 438.922 16.472 438.79C16.4 438.574 16.22 438.478 15.884 438.478H13.412C12.512 438.478 12.02 438.694 12.02 439.642C12.02 440.05 12.104 440.35 12.26 440.806H15.884C16.22 440.806 16.388 440.71 16.472 440.494C16.52 440.386 16.532 440.254 16.556 440.014H17V443.038H16.556C16.544 442.87 16.532 442.678 16.472 442.546C16.4 442.33 16.22 442.234 15.884 442.234ZM13.808 429.522C15.596 429.522 17.18 430.734 17.18 432.702C17.18 434.334 16.1 435.474 14.3 435.474C12.296 435.474 10.988 434.058 10.988 432.282C10.988 430.626 12.104 429.522 13.808 429.522ZM14.204 431.082C12.704 431.082 11.684 431.502 11.684 432.606C11.684 433.626 12.56 433.926 13.856 433.926C15.344 433.926 16.484 433.53 16.484 432.426C16.484 431.502 15.668 431.082 14.204 431.082ZM11.816 428.908H11.228V427.864H10.004L9.356 426.652V426.436H11.228V424.78H11.816V426.436H14.972C15.968 426.436 16.256 426.172 16.256 425.308C16.256 425.128 16.22 424.888 16.172 424.66H16.724C16.94 424.972 17.144 425.584 17.144 426.172C17.144 427.12 16.772 427.864 15.704 427.864H11.816V428.908ZM13.808 418.003C15.596 418.003 17.18 419.215 17.18 421.183C17.18 422.815 16.1 423.955 14.3 423.955C12.296 423.955 10.988 422.539 10.988 420.763C10.988 419.107 12.104 418.003 13.808 418.003ZM14.204 419.563C12.704 419.563 11.684 419.983 11.684 421.087C11.684 422.107 12.56 422.407 13.856 422.407C15.344 422.407 16.484 422.011 16.484 420.907C16.484 419.983 15.668 419.563 14.204 419.563Z" fill="black"/>
<path d="M6.5 534.75H17.5L12 516.278" fill="black"/>
<path d="M17.5 570.905V572.194H9.98242L10.5566 573.77L9.51953 574.174L8.71094 571.942V570.905H17.5ZM17.5 563.452V568.842H16.7148C16.0977 568.128 15.5391 567.522 15.0391 567.026C14.5391 566.53 14.082 566.13 13.668 565.825C13.2539 565.516 12.8672 565.292 12.5078 565.151C12.1445 565.007 11.793 564.934 11.4531 564.934C11.0977 564.934 10.7852 565.001 10.5156 565.133C10.2461 565.266 10.0371 565.454 9.88867 565.696C9.74023 565.934 9.66602 566.21 9.66602 566.522C9.66602 566.882 9.76953 567.225 9.97656 567.553C10.1797 567.882 10.4609 568.153 10.8203 568.368L10.0117 569.053C9.54297 568.737 9.17969 568.337 8.92188 567.852C8.66406 567.364 8.53516 566.844 8.53516 566.294C8.53516 565.782 8.64844 565.325 8.875 564.923C9.09766 564.516 9.4082 564.198 9.80664 563.967C10.2051 563.733 10.6699 563.616 11.2012 563.616C11.6113 563.616 12.0312 563.69 12.4609 563.839C12.8867 563.987 13.3184 564.208 13.7559 564.501C14.1895 564.79 14.625 565.149 15.0625 565.579C15.5 566.005 15.9355 566.493 16.3691 567.044V563.452H17.5Z" fill="black"/>
<path d="M9.836 848.911C9.5 848.911 9.332 849.019 9.248 849.223C9.2 849.331 9.188 849.607 9.164 849.847H8.684V846.403H9.164C9.176 846.559 9.188 846.895 9.248 847.015C9.32 847.243 9.512 847.327 9.836 847.327H15.848C16.184 847.327 16.352 847.231 16.436 847.015C16.484 846.907 16.496 846.643 16.52 846.403H17V849.847H16.52C16.508 849.679 16.496 849.355 16.436 849.223C16.364 849.007 16.172 848.911 15.848 848.911H12.98V852.583H15.848C16.184 852.583 16.352 852.475 16.436 852.259C16.484 852.151 16.496 851.887 16.52 851.647H17V855.091H16.52C16.508 854.935 16.496 854.599 16.436 854.479C16.364 854.251 16.172 854.167 15.848 854.167H9.836C9.5 854.167 9.332 854.263 9.248 854.479C9.2 854.587 9.188 854.851 9.164 855.091H8.684V851.647H9.164C9.176 851.815 9.188 852.139 9.248 852.271C9.32 852.487 9.512 852.583 9.836 852.583H12.356V848.911H9.836ZM13.148 840.78H15.812C16.412 840.78 16.568 840.516 16.568 840.024C16.568 839.964 16.568 839.904 16.556 839.82H16.88C17.012 840.12 17.144 840.468 17.144 840.972C17.144 841.932 16.724 842.208 16.112 842.208H16.1C16.7 842.592 17.132 843.264 17.132 844.008C17.132 844.848 16.592 845.484 15.704 845.484C14.804 845.484 14.3 844.836 14.012 843.624L13.676 842.208H13.424C12.464 842.208 12.092 842.496 12.092 843.432C12.092 843.948 12.2 844.692 12.344 845.304H11.708C11.288 844.524 11.024 843.516 11.024 842.688C11.024 841.44 11.648 840.78 13.148 840.78ZM15.296 844.104C15.8 844.104 16.088 843.804 16.088 843.204C16.088 842.868 15.98 842.472 15.848 842.208H14.216L14.408 842.964C14.6 843.72 14.804 844.104 15.296 844.104ZM12.224 838.577C11.852 838.577 11.732 838.649 11.732 839.033C11.732 839.165 11.744 839.393 11.756 839.513H11.336C11.192 839.105 10.988 838.289 10.988 837.809C10.988 837.305 11.228 837.149 11.732 837.149H11.948C11.252 836.525 11.024 835.901 11.024 835.277C11.024 833.969 12.044 833.069 13.736 833.069C15.872 833.069 17.168 834.497 17.168 836.537C17.168 836.765 17.156 836.957 17.132 837.149H18.488C18.848 837.149 19.04 837.029 19.088 836.741C19.112 836.657 19.124 836.273 19.136 836.069H19.604V839.381H19.16C19.148 839.213 19.136 839.021 19.076 838.889C19.004 838.673 18.824 838.577 18.488 838.577H12.224ZM12.02 836.045C12.02 836.357 12.092 836.705 12.308 837.149H16.268C16.388 836.849 16.472 836.477 16.472 836.105C16.472 834.965 15.44 834.473 14.132 834.473C12.764 834.473 12.02 835.025 12.02 836.045ZM12.224 831.417C11.852 831.417 11.732 831.489 11.732 831.873C11.732 832.005 11.744 832.233 11.756 832.353H11.336C11.192 831.945 10.988 831.129 10.988 830.649C10.988 830.145 11.228 829.989 11.732 829.989H11.948C11.252 829.365 11.024 828.741 11.024 828.117C11.024 826.809 12.044 825.909 13.736 825.909C15.872 825.909 17.168 827.337 17.168 829.377C17.168 829.605 17.156 829.797 17.132 829.989H18.488C18.848 829.989 19.04 829.869 19.088 829.581C19.112 829.497 19.124 829.113 19.136 828.909H19.604V832.221H19.16C19.148 832.053 19.136 831.861 19.076 831.729C19.004 831.513 18.824 831.417 18.488 831.417H12.224ZM12.02 828.885C12.02 829.197 12.092 829.545 12.308 829.989H16.268C16.388 829.689 16.472 829.317 16.472 828.945C16.472 827.805 15.44 827.313 14.132 827.313C12.764 827.313 12.02 827.865 12.02 828.885ZM11.168 819.009H11.54C11.636 819.429 11.984 819.741 12.404 819.921L15.62 821.325V821.313L17.024 821.925C17.816 822.261 19.712 823.005 19.712 824.721C19.712 825.141 19.472 825.357 19.16 825.357C18.788 825.357 18.524 825.129 18.524 824.757C18.524 823.497 18.308 823.113 17.084 822.573L12.188 824.625C11.756 824.805 11.588 825.105 11.54 825.429H11.168V822.453H11.54C11.54 822.921 11.78 823.185 12.116 823.065L15.296 821.853L12.644 820.761C11.972 820.473 11.612 820.785 11.54 821.373H11.168L11.168 819.009ZM12.224 815.667C11.852 815.667 11.732 815.739 11.732 816.123C11.732 816.255 11.744 816.483 11.756 816.603H11.336C11.192 816.195 10.988 815.379 10.988 814.899C10.988 814.395 11.228 814.239 11.732 814.239H11.948C11.252 813.615 11.024 812.991 11.024 812.367C11.024 811.059 12.044 810.159 13.736 810.159C15.872 810.159 17.168 811.587 17.168 813.627C17.168 813.855 17.156 814.047 17.132 814.239H18.488C18.848 814.239 19.04 814.119 19.088 813.831C19.112 813.747 19.124 813.363 19.136 813.159H19.604V816.471H19.16C19.148 816.303 19.136 816.111 19.076 815.979C19.004 815.763 18.824 815.667 18.488 815.667H12.224ZM12.02 813.135C12.02 813.447 12.092 813.795 12.308 814.239H16.268C16.388 813.939 16.472 813.567 16.472 813.195C16.472 812.055 15.44 811.563 14.132 811.563C12.764 811.563 12.02 812.115 12.02 813.135ZM15.884 808.567H9.128C8.756 808.567 8.636 808.639 8.624 808.987C8.624 809.131 8.648 809.371 8.66 809.503H8.24C8.096 809.095 7.892 808.279 7.892 807.811C7.892 807.295 8.12 807.139 8.624 807.139H11.96C11.384 806.539 10.988 805.831 10.988 805.027C10.988 803.959 11.576 803.383 13.016 803.383H15.884C16.22 803.383 16.388 803.287 16.472 803.071C16.52 802.963 16.532 802.831 16.556 802.591H17V805.615H16.556C16.544 805.447 16.532 805.255 16.472 805.123C16.4 804.907 16.22 804.811 15.884 804.811H13.412C12.512 804.811 12.02 805.027 12.02 805.975C12.02 806.383 12.104 806.683 12.26 807.139H15.884C16.22 807.139 16.388 807.043 16.472 806.827C16.52 806.719 16.532 806.587 16.556 806.347H17V809.371H16.556C16.544 809.203 16.532 809.011 16.472 808.879C16.4 808.663 16.22 808.567 15.884 808.567ZM13.808 795.855C15.596 795.855 17.18 797.067 17.18 799.035C17.18 800.667 16.1 801.807 14.3 801.807C12.296 801.807 10.988 800.391 10.988 798.615C10.988 796.959 12.104 795.855 13.808 795.855ZM14.204 797.415C12.704 797.415 11.684 797.835 11.684 798.939C11.684 799.959 12.56 800.259 13.856 800.259C15.344 800.259 16.484 799.863 16.484 798.759C16.484 797.835 15.668 797.415 14.204 797.415ZM11.816 795.242H11.228V794.198H10.004L9.356 792.986V792.77H11.228V791.114H11.816V792.77H14.972C15.968 792.77 16.256 792.506 16.256 791.642C16.256 791.462 16.22 791.222 16.172 790.994H16.724C16.94 791.306 17.144 791.918 17.144 792.506C17.144 793.454 16.772 794.198 15.704 794.198H11.816V795.242ZM13.808 784.336C15.596 784.336 17.18 785.548 17.18 787.516C17.18 789.148 16.1 790.288 14.3 790.288C12.296 790.288 10.988 788.872 10.988 787.096C10.988 785.44 12.104 784.336 13.808 784.336ZM14.204 785.896C12.704 785.896 11.684 786.316 11.684 787.42C11.684 788.44 12.56 788.74 13.856 788.74C15.344 788.74 16.484 788.344 16.484 787.24C16.484 786.316 15.668 785.896 14.204 785.896Z" fill="black"/>
</svg>
