<svg width="300" height="872" viewBox="0 0 300 872" fill="none" xmlns="http://www.w3.org/2000/svg">
<path d="M10.7498 116.244C10.4138 116.244 10.2458 116.352 10.1618 116.556C10.1138 116.664 10.1018 116.94 10.0778 117.18H9.59782V113.736H10.0778C10.0898 113.892 10.1018 114.228 10.1618 114.348C10.2338 114.576 10.4258 114.66 10.7498 114.66H16.7618C17.0978 114.66 17.2658 114.564 17.3498 114.348C17.3978 114.24 17.4098 113.976 17.4338 113.736H17.9138V117.18H17.4338C17.4218 117.012 17.4098 116.688 17.3498 116.556C17.2778 116.34 17.0858 116.244 16.7618 116.244H13.8938V119.916H16.7618C17.0978 119.916 17.2658 119.808 17.3498 119.592C17.3978 119.484 17.4098 119.22 17.4338 118.98H17.9138V122.424H17.4338C17.4218 122.268 17.4098 121.932 17.3498 121.812C17.2778 121.584 17.0858 121.5 16.7618 121.5H10.7498C10.4138 121.5 10.2458 121.596 10.1618 121.812C10.1138 121.92 10.1018 122.184 10.0778 122.424H9.59782V118.98H10.0778C10.0898 119.148 10.1018 119.472 10.1618 119.604C10.2338 119.82 10.4258 119.916 10.7498 119.916H13.2698V116.244H10.7498ZM14.0618 108.113H16.7258C17.3258 108.113 17.4818 107.849 17.4818 107.357C17.4818 107.297 17.4818 107.237 17.4698 107.153H17.7938C17.9258 107.453 18.0578 107.801 18.0578 108.305C18.0578 109.265 17.6378 109.541 17.0258 109.541H17.0138C17.6138 109.925 18.0458 110.597 18.0458 111.341C18.0458 112.181 17.5058 112.817 16.6178 112.817C15.7178 112.817 15.2138 112.169 14.9258 110.957L14.5898 109.541H14.3378C13.3778 109.541 13.0058 109.829 13.0058 110.765C13.0058 111.281 13.1138 112.025 13.2578 112.637H12.6218C12.2018 111.857 11.9378 110.849 11.9378 110.021C11.9378 108.773 12.5618 108.113 14.0618 108.113ZM16.2098 111.437C16.7138 111.437 17.0018 111.137 17.0018 110.537C17.0018 110.201 16.8938 109.805 16.7618 109.541H15.1298L15.3218 110.297C15.5138 111.053 15.7178 111.437 16.2098 111.437ZM13.1378 105.91C12.7658 105.91 12.6458 105.982 12.6458 106.366C12.6458 106.498 12.6578 106.726 12.6698 106.846H12.2498C12.1058 106.438 11.9018 105.622 11.9018 105.142C11.9018 104.638 12.1418 104.482 12.6458 104.482H12.8618C12.1658 103.858 11.9378 103.234 11.9378 102.61C11.9378 101.302 12.9578 100.402 14.6498 100.402C16.7858 100.402 18.0818 101.83 18.0818 103.87C18.0818 104.098 18.0698 104.29 18.0458 104.482H19.4018C19.7618 104.482 19.9538 104.362 20.0018 104.074C20.0258 103.99 20.0378 103.606 20.0498 103.402H20.5178V106.714H20.0738C20.0618 106.546 20.0498 106.354 19.9898 106.222C19.9178 106.006 19.7378 105.91 19.4018 105.91H13.1378ZM12.9338 103.378C12.9338 103.69 13.0058 104.038 13.2218 104.482H17.1818C17.3018 104.182 17.3858 103.81 17.3858 103.438C17.3858 102.298 16.3538 101.806 15.0458 101.806C13.6778 101.806 12.9338 102.358 12.9338 103.378ZM13.1378 98.7503C12.7658 98.7503 12.6458 98.8223 12.6458 99.2063C12.6458 99.3383 12.6578 99.5663 12.6698 99.6863H12.2498C12.1058 99.2783 11.9018 98.4623 11.9018 97.9823C11.9018 97.4783 12.1418 97.3223 12.6458 97.3223H12.8618C12.1658 96.6983 11.9378 96.0743 11.9378 95.4503C11.9378 94.1423 12.9578 93.2423 14.6498 93.2423C16.7858 93.2423 18.0818 94.6703 18.0818 96.7103C18.0818 96.9383 18.0698 97.1303 18.0458 97.3223H19.4018C19.7618 97.3223 19.9538 97.2023 20.0018 96.9143C20.0258 96.8303 20.0378 96.4463 20.0498 96.2423H20.5178V99.5543H20.0738C20.0618 99.3863 20.0498 99.1943 19.9898 99.0623C19.9178 98.8463 19.7378 98.7503 19.4018 98.7503H13.1378ZM12.9338 96.2183C12.9338 96.5303 13.0058 96.8783 13.2218 97.3223H17.1818C17.3018 97.0223 17.3858 96.6503 17.3858 96.2783C17.3858 95.1383 16.3538 94.6463 15.0458 94.6463C13.6778 94.6463 12.9338 95.1983 12.9338 96.2183ZM12.0818 86.3428H12.4538C12.5498 86.7628 12.8978 87.0748 13.3178 87.2548L16.5338 88.6588V88.6468L17.9378 89.2588C18.7298 89.5948 20.6258 90.3388 20.6258 92.0548C20.6258 92.4748 20.3858 92.6908 20.0738 92.6908C19.7018 92.6908 19.4378 92.4628 19.4378 92.0908C19.4378 90.8308 19.2218 90.4468 17.9978 89.9068L13.1018 91.9588C12.6698 92.1388 12.5018 92.4388 12.4538 92.7628H12.0818V89.7868H12.4538C12.4538 90.2548 12.6938 90.5188 13.0298 90.3988L16.2098 89.1868L13.5578 88.0948C12.8858 87.8068 12.5258 88.1188 12.4538 88.7068H12.0818L12.0818 86.3428ZM13.1378 83.0003C12.7658 83.0003 12.6458 83.0723 12.6458 83.4563C12.6458 83.5883 12.6578 83.8163 12.6698 83.9363H12.2498C12.1058 83.5283 11.9018 82.7123 11.9018 82.2323C11.9018 81.7283 12.1418 81.5723 12.6458 81.5723H12.8618C12.1658 80.9483 11.9378 80.3243 11.9378 79.7003C11.9378 78.3923 12.9578 77.4923 14.6498 77.4923C16.7858 77.4923 18.0818 78.9203 18.0818 80.9603C18.0818 81.1883 18.0698 81.3803 18.0458 81.5723H19.4018C19.7618 81.5723 19.9538 81.4523 20.0018 81.1643C20.0258 81.0803 20.0378 80.6963 20.0498 80.4923H20.5178V83.8043H20.0738C20.0618 83.6363 20.0498 83.4443 19.9898 83.3123C19.9178 83.0963 19.7378 83.0003 19.4018 83.0003H13.1378ZM12.9338 80.4683C12.9338 80.7803 13.0058 81.1283 13.2218 81.5723H17.1818C17.3018 81.2723 17.3858 80.9003 17.3858 80.5283C17.3858 79.3883 16.3538 78.8963 15.0458 78.8963C13.6778 78.8963 12.9338 79.4483 12.9338 80.4683ZM16.7978 75.9002H10.0418C9.66982 75.9002 9.54982 75.9722 9.53782 76.3202C9.53782 76.4642 9.56182 76.7042 9.57382 76.8362H9.15382C9.00982 76.4282 8.80582 75.6122 8.80582 75.1442C8.80582 74.6282 9.03382 74.4722 9.53782 74.4722H12.8738C12.2978 73.8722 11.9018 73.1642 11.9018 72.3602C11.9018 71.2922 12.4898 70.7162 13.9298 70.7162H16.7978C17.1338 70.7162 17.3018 70.6202 17.3858 70.4042C17.4338 70.2962 17.4458 70.1642 17.4698 69.9242H17.9138V72.9482H17.4698C17.4578 72.7802 17.4458 72.5882 17.3858 72.4562C17.3138 72.2402 17.1338 72.1442 16.7978 72.1442H14.3258C13.4258 72.1442 12.9338 72.3602 12.9338 73.3082C12.9338 73.7162 13.0178 74.0162 13.1738 74.4722H16.7978C17.1338 74.4722 17.3018 74.3762 17.3858 74.1602C17.4338 74.0522 17.4458 73.9202 17.4698 73.6802H17.9138V76.7042H17.4698C17.4578 76.5362 17.4458 76.3442 17.3858 76.2122C17.3138 75.9962 17.1338 75.9002 16.7978 75.9002ZM14.7218 63.1888C16.5098 63.1888 18.0938 64.4008 18.0938 66.3688C18.0938 68.0008 17.0138 69.1408 15.2138 69.1408C13.2098 69.1408 11.9018 67.7248 11.9018 65.9488C11.9018 64.2928 13.0178 63.1888 14.7218 63.1888ZM15.1178 64.7488C13.6178 64.7488 12.5978 65.1688 12.5978 66.2728C12.5978 67.2928 13.4738 67.5928 14.7698 67.5928C16.2578 67.5928 17.3978 67.1968 17.3978 66.0928C17.3978 65.1688 16.5818 64.7488 15.1178 64.7488ZM12.7298 62.575H12.1418V61.531H10.9178L10.2698 60.319V60.103H12.1418V58.447H12.7298V60.103H15.8858C16.8818 60.103 17.1698 59.839 17.1698 58.975C17.1698 58.795 17.1338 58.555 17.0858 58.327H17.6378C17.8538 58.639 18.0578 59.251 18.0578 59.839C18.0578 60.787 17.6858 61.531 16.6178 61.531H12.7298V62.575ZM14.7218 51.6693C16.5098 51.6693 18.0938 52.8813 18.0938 54.8493C18.0938 56.4813 17.0138 57.6213 15.2138 57.6213C13.2098 57.6213 11.9018 56.2053 11.9018 54.4293C11.9018 52.7733 13.0178 51.6693 14.7218 51.6693ZM15.1178 53.2293C13.6178 53.2293 12.5978 53.6493 12.5978 54.7533C12.5978 55.7733 13.4738 56.0733 14.7698 56.0733C16.2578 56.0733 17.3978 55.6773 17.3978 54.5733C17.3978 53.6493 16.5818 53.2293 15.1178 53.2293Z" fill="black"/>
<g clip-path="url(#clip0_154_165)">
<path d="M7.41382 168.417H18.4138L12.9138 149.944" fill="black"/>
</g>
<path d="M18.4138 204.572V205.861H10.8962L11.4705 207.437L10.4333 207.841L9.62476 205.609V204.572H18.4138ZM18.4138 197.119V202.509H17.6287C17.0115 201.794 16.4529 201.189 15.9529 200.693C15.4529 200.197 14.9958 199.796 14.5818 199.492C14.1677 199.183 13.781 198.958 13.4216 198.818C13.0583 198.673 12.7068 198.601 12.3669 198.601C12.0115 198.601 11.699 198.667 11.4294 198.8C11.1599 198.933 10.9509 199.12 10.8025 199.363C10.6541 199.601 10.5798 199.876 10.5798 200.189C10.5798 200.548 10.6833 200.892 10.8904 201.22C11.0935 201.548 11.3748 201.82 11.7341 202.035L10.9255 202.72C10.4568 202.404 10.0935 202.003 9.83569 201.519C9.57788 201.031 9.44897 200.511 9.44897 199.96C9.44897 199.449 9.56226 198.992 9.78882 198.589C10.0115 198.183 10.322 197.865 10.7205 197.634C11.1189 197.4 11.5837 197.283 12.115 197.283C12.5251 197.283 12.9451 197.357 13.3748 197.505C13.8005 197.654 14.2322 197.874 14.6697 198.167C15.1033 198.456 15.5388 198.816 15.9763 199.245C16.4138 199.671 16.8494 200.16 17.283 200.71V197.119H18.4138Z" fill="black"/>
<path d="M10.7498 482.577C10.4138 482.577 10.2458 482.685 10.1618 482.889C10.1138 482.997 10.1018 483.273 10.0778 483.513H9.59782V480.069H10.0778C10.0898 480.225 10.1018 480.561 10.1618 480.681C10.2338 480.909 10.4258 480.993 10.7498 480.993H16.7618C17.0978 480.993 17.2658 480.897 17.3498 480.681C17.3978 480.573 17.4098 480.309 17.4338 480.069H17.9138V483.513H17.4338C17.4218 483.345 17.4098 483.021 17.3498 482.889C17.2778 482.673 17.0858 482.577 16.7618 482.577H13.8938V486.249H16.7618C17.0978 486.249 17.2658 486.141 17.3498 485.925C17.3978 485.817 17.4098 485.553 17.4338 485.313H17.9138V488.757H17.4338C17.4218 488.601 17.4098 488.265 17.3498 488.145C17.2778 487.917 17.0858 487.833 16.7618 487.833H10.7498C10.4138 487.833 10.2458 487.929 10.1618 488.145C10.1138 488.253 10.1018 488.517 10.0778 488.757H9.59782V485.313H10.0778C10.0898 485.481 10.1018 485.805 10.1618 485.937C10.2338 486.153 10.4258 486.249 10.7498 486.249H13.2698V482.577H10.7498ZM14.0618 474.446H16.7258C17.3258 474.446 17.4818 474.182 17.4818 473.69C17.4818 473.63 17.4818 473.57 17.4698 473.486H17.7938C17.9258 473.786 18.0578 474.134 18.0578 474.638C18.0578 475.598 17.6378 475.874 17.0258 475.874H17.0138C17.6138 476.258 18.0458 476.93 18.0458 477.674C18.0458 478.514 17.5058 479.15 16.6178 479.15C15.7178 479.15 15.2138 478.502 14.9258 477.29L14.5898 475.874H14.3378C13.3778 475.874 13.0058 476.162 13.0058 477.098C13.0058 477.614 13.1138 478.358 13.2578 478.97H12.6218C12.2018 478.19 11.9378 477.182 11.9378 476.354C11.9378 475.106 12.5618 474.446 14.0618 474.446ZM16.2098 477.77C16.7138 477.77 17.0018 477.47 17.0018 476.87C17.0018 476.534 16.8938 476.138 16.7618 475.874H15.1298L15.3218 476.63C15.5138 477.386 15.7178 477.77 16.2098 477.77ZM13.1378 472.244C12.7658 472.244 12.6458 472.316 12.6458 472.7C12.6458 472.832 12.6578 473.06 12.6698 473.18H12.2498C12.1058 472.772 11.9018 471.956 11.9018 471.476C11.9018 470.972 12.1418 470.816 12.6458 470.816H12.8618C12.1658 470.192 11.9378 469.568 11.9378 468.944C11.9378 467.636 12.9578 466.736 14.6498 466.736C16.7858 466.736 18.0818 468.164 18.0818 470.204C18.0818 470.432 18.0698 470.624 18.0458 470.816H19.4018C19.7618 470.816 19.9538 470.696 20.0018 470.408C20.0258 470.324 20.0378 469.94 20.0498 469.736H20.5178V473.048H20.0738C20.0618 472.88 20.0498 472.688 19.9898 472.556C19.9178 472.34 19.7378 472.244 19.4018 472.244H13.1378ZM12.9338 469.712C12.9338 470.024 13.0058 470.372 13.2218 470.816H17.1818C17.3018 470.516 17.3858 470.144 17.3858 469.772C17.3858 468.632 16.3538 468.14 15.0458 468.14C13.6778 468.14 12.9338 468.692 12.9338 469.712ZM13.1378 465.084C12.7658 465.084 12.6458 465.156 12.6458 465.54C12.6458 465.672 12.6578 465.9 12.6698 466.02H12.2498C12.1058 465.612 11.9018 464.796 11.9018 464.316C11.9018 463.812 12.1418 463.656 12.6458 463.656H12.8618C12.1658 463.032 11.9378 462.408 11.9378 461.784C11.9378 460.476 12.9578 459.576 14.6498 459.576C16.7858 459.576 18.0818 461.004 18.0818 463.044C18.0818 463.272 18.0698 463.464 18.0458 463.656H19.4018C19.7618 463.656 19.9538 463.536 20.0018 463.248C20.0258 463.164 20.0378 462.78 20.0498 462.576H20.5178V465.888H20.0738C20.0618 465.72 20.0498 465.528 19.9898 465.396C19.9178 465.18 19.7378 465.084 19.4018 465.084H13.1378ZM12.9338 462.552C12.9338 462.864 13.0058 463.212 13.2218 463.656H17.1818C17.3018 463.356 17.3858 462.984 17.3858 462.612C17.3858 461.472 16.3538 460.98 15.0458 460.98C13.6778 460.98 12.9338 461.532 12.9338 462.552ZM12.0818 452.676H12.4538C12.5498 453.096 12.8978 453.408 13.3178 453.588L16.5338 454.992V454.98L17.9378 455.592C18.7298 455.928 20.6258 456.672 20.6258 458.388C20.6258 458.808 20.3858 459.024 20.0738 459.024C19.7018 459.024 19.4378 458.796 19.4378 458.424C19.4378 457.164 19.2218 456.78 17.9978 456.24L13.1018 458.292C12.6698 458.472 12.5018 458.772 12.4538 459.096H12.0818V456.12H12.4538C12.4538 456.588 12.6938 456.852 13.0298 456.732L16.2098 455.52L13.5578 454.428C12.8858 454.14 12.5258 454.452 12.4538 455.04H12.0818L12.0818 452.676ZM13.1378 449.334C12.7658 449.334 12.6458 449.406 12.6458 449.79C12.6458 449.922 12.6578 450.15 12.6698 450.27H12.2498C12.1058 449.862 11.9018 449.046 11.9018 448.566C11.9018 448.062 12.1418 447.906 12.6458 447.906H12.8618C12.1658 447.282 11.9378 446.658 11.9378 446.034C11.9378 444.726 12.9578 443.826 14.6498 443.826C16.7858 443.826 18.0818 445.254 18.0818 447.294C18.0818 447.522 18.0698 447.714 18.0458 447.906H19.4018C19.7618 447.906 19.9538 447.786 20.0018 447.498C20.0258 447.414 20.0378 447.03 20.0498 446.826H20.5178V450.138H20.0738C20.0618 449.97 20.0498 449.778 19.9898 449.646C19.9178 449.43 19.7378 449.334 19.4018 449.334H13.1378ZM12.9338 446.802C12.9338 447.114 13.0058 447.462 13.2218 447.906H17.1818C17.3018 447.606 17.3858 447.234 17.3858 446.862C17.3858 445.722 16.3538 445.23 15.0458 445.23C13.6778 445.23 12.9338 445.782 12.9338 446.802ZM16.7978 442.233H10.0418C9.66982 442.233 9.54982 442.305 9.53782 442.653C9.53782 442.797 9.56182 443.037 9.57382 443.169H9.15382C9.00982 442.761 8.80582 441.945 8.80582 441.477C8.80582 440.961 9.03382 440.805 9.53782 440.805H12.8738C12.2978 440.205 11.9018 439.497 11.9018 438.693C11.9018 437.625 12.4898 437.049 13.9298 437.049H16.7978C17.1338 437.049 17.3018 436.953 17.3858 436.737C17.4338 436.629 17.4458 436.497 17.4698 436.257H17.9138V439.281H17.4698C17.4578 439.113 17.4458 438.921 17.3858 438.789C17.3138 438.573 17.1338 438.477 16.7978 438.477H14.3258C13.4258 438.477 12.9338 438.693 12.9338 439.641C12.9338 440.049 13.0178 440.349 13.1738 440.805H16.7978C17.1338 440.805 17.3018 440.709 17.3858 440.493C17.4338 440.385 17.4458 440.253 17.4698 440.013H17.9138V443.037H17.4698C17.4578 442.869 17.4458 442.677 17.3858 442.545C17.3138 442.329 17.1338 442.233 16.7978 442.233ZM14.7218 429.522C16.5098 429.522 18.0938 430.734 18.0938 432.702C18.0938 434.334 17.0138 435.474 15.2138 435.474C13.2098 435.474 11.9018 434.058 11.9018 432.282C11.9018 430.626 13.0178 429.522 14.7218 429.522ZM15.1178 431.082C13.6178 431.082 12.5978 431.502 12.5978 432.606C12.5978 433.626 13.4738 433.926 14.7698 433.926C16.2578 433.926 17.3978 433.53 17.3978 432.426C17.3978 431.502 16.5818 431.082 15.1178 431.082ZM12.7298 428.908H12.1418V427.864H10.9178L10.2698 426.652V426.436H12.1418V424.78H12.7298V426.436H15.8858C16.8818 426.436 17.1698 426.172 17.1698 425.308C17.1698 425.128 17.1338 424.888 17.0858 424.66H17.6378C17.8538 424.972 18.0578 425.584 18.0578 426.172C18.0578 427.12 17.6858 427.864 16.6178 427.864H12.7298V428.908ZM14.7218 418.003C16.5098 418.003 18.0938 419.215 18.0938 421.183C18.0938 422.815 17.0138 423.955 15.2138 423.955C13.2098 423.955 11.9018 422.539 11.9018 420.763C11.9018 419.107 13.0178 418.003 14.7218 418.003ZM15.1178 419.563C13.6178 419.563 12.5978 419.983 12.5978 421.087C12.5978 422.107 13.4738 422.407 14.7698 422.407C16.2578 422.407 17.3978 422.011 17.3978 420.907C17.3978 419.983 16.5818 419.563 15.1178 419.563Z" fill="black"/>
<g clip-path="url(#clip1_154_165)">
<path d="M7.41382 534.75H18.4138L12.9138 516.278" fill="black"/>
</g>
<path d="M18.4138 570.905V572.194H10.8962L11.4705 573.77L10.4333 574.174L9.62476 571.942V570.905H18.4138ZM18.4138 563.452V568.842H17.6287C17.0115 568.128 16.4529 567.522 15.9529 567.026C15.4529 566.53 14.9958 566.13 14.5818 565.825C14.1677 565.516 13.781 565.292 13.4216 565.151C13.0583 565.006 12.7068 564.934 12.3669 564.934C12.0115 564.934 11.699 565.001 11.4294 565.133C11.1599 565.266 10.9509 565.454 10.8025 565.696C10.6541 565.934 10.5798 566.21 10.5798 566.522C10.5798 566.881 10.6833 567.225 10.8904 567.553C11.0935 567.881 11.3748 568.153 11.7341 568.368L10.9255 569.053C10.4568 568.737 10.0935 568.337 9.83569 567.852C9.57788 567.364 9.44897 566.844 9.44897 566.294C9.44897 565.782 9.56226 565.325 9.78882 564.922C10.0115 564.516 10.322 564.198 10.7205 563.967C11.1189 563.733 11.5837 563.616 12.115 563.616C12.5251 563.616 12.9451 563.69 13.3748 563.839C13.8005 563.987 14.2322 564.208 14.6697 564.501C15.1033 564.79 15.5388 565.149 15.9763 565.579C16.4138 566.005 16.8494 566.493 17.283 567.044V563.452H18.4138Z" fill="black"/>
<path d="M10.7498 848.911C10.4138 848.911 10.2458 849.019 10.1618 849.223C10.1138 849.331 10.1018 849.607 10.0778 849.847H9.59782V846.403H10.0778C10.0898 846.559 10.1018 846.895 10.1618 847.015C10.2338 847.243 10.4258 847.327 10.7498 847.327H16.7618C17.0978 847.327 17.2658 847.231 17.3498 847.015C17.3978 846.907 17.4098 846.643 17.4338 846.403H17.9138V849.847H17.4338C17.4218 849.679 17.4098 849.355 17.3498 849.223C17.2778 849.007 17.0858 848.911 16.7618 848.911H13.8938V852.583H16.7618C17.0978 852.583 17.2658 852.475 17.3498 852.259C17.3978 852.151 17.4098 851.887 17.4338 851.647H17.9138V855.091H17.4338C17.4218 854.935 17.4098 854.599 17.3498 854.479C17.2778 854.251 17.0858 854.167 16.7618 854.167H10.7498C10.4138 854.167 10.2458 854.263 10.1618 854.479C10.1138 854.587 10.1018 854.851 10.0778 855.091H9.59782V851.647H10.0778C10.0898 851.815 10.1018 852.139 10.1618 852.271C10.2338 852.487 10.4258 852.583 10.7498 852.583H13.2698V848.911H10.7498ZM14.0618 840.78H16.7258C17.3258 840.78 17.4818 840.516 17.4818 840.024C17.4818 839.964 17.4818 839.904 17.4698 839.82H17.7938C17.9258 840.12 18.0578 840.468 18.0578 840.972C18.0578 841.932 17.6378 842.208 17.0258 842.208H17.0138C17.6138 842.592 18.0458 843.264 18.0458 844.008C18.0458 844.848 17.5058 845.484 16.6178 845.484C15.7178 845.484 15.2138 844.836 14.9258 843.624L14.5898 842.208H14.3378C13.3778 842.208 13.0058 842.496 13.0058 843.432C13.0058 843.948 13.1138 844.692 13.2578 845.304H12.6218C12.2018 844.524 11.9378 843.516 11.9378 842.688C11.9378 841.44 12.5618 840.78 14.0618 840.78ZM16.2098 844.104C16.7138 844.104 17.0018 843.804 17.0018 843.204C17.0018 842.868 16.8938 842.472 16.7618 842.208H15.1298L15.3218 842.964C15.5138 843.72 15.7178 844.104 16.2098 844.104ZM13.1378 838.577C12.7658 838.577 12.6458 838.649 12.6458 839.033C12.6458 839.165 12.6578 839.393 12.6698 839.513H12.2498C12.1058 839.105 11.9018 838.289 11.9018 837.809C11.9018 837.305 12.1418 837.149 12.6458 837.149H12.8618C12.1658 836.525 11.9378 835.901 11.9378 835.277C11.9378 833.969 12.9578 833.069 14.6498 833.069C16.7858 833.069 18.0818 834.497 18.0818 836.537C18.0818 836.765 18.0698 836.957 18.0458 837.149H19.4018C19.7618 837.149 19.9538 837.029 20.0018 836.741C20.0258 836.657 20.0378 836.273 20.0498 836.069H20.5178V839.381H20.0738C20.0618 839.213 20.0498 839.021 19.9898 838.889C19.9178 838.673 19.7378 838.577 19.4018 838.577H13.1378ZM12.9338 836.045C12.9338 836.357 13.0058 836.705 13.2218 837.149H17.1818C17.3018 836.849 17.3858 836.477 17.3858 836.105C17.3858 834.965 16.3538 834.473 15.0458 834.473C13.6778 834.473 12.9338 835.025 12.9338 836.045ZM13.1378 831.417C12.7658 831.417 12.6458 831.489 12.6458 831.873C12.6458 832.005 12.6578 832.233 12.6698 832.353H12.2498C12.1058 831.945 11.9018 831.129 11.9018 830.649C11.9018 830.145 12.1418 829.989 12.6458 829.989H12.8618C12.1658 829.365 11.9378 828.741 11.9378 828.117C11.9378 826.809 12.9578 825.909 14.6498 825.909C16.7858 825.909 18.0818 827.337 18.0818 829.377C18.0818 829.605 18.0698 829.797 18.0458 829.989H19.4018C19.7618 829.989 19.9538 829.869 20.0018 829.581C20.0258 829.497 20.0378 829.113 20.0498 828.909H20.5178V832.221H20.0738C20.0618 832.053 20.0498 831.861 19.9898 831.729C19.9178 831.513 19.7378 831.417 19.4018 831.417H13.1378ZM12.9338 828.885C12.9338 829.197 13.0058 829.545 13.2218 829.989H17.1818C17.3018 829.689 17.3858 829.317 17.3858 828.945C17.3858 827.805 16.3538 827.313 15.0458 827.313C13.6778 827.313 12.9338 827.865 12.9338 828.885ZM12.0818 819.009H12.4538C12.5498 819.429 12.8978 819.741 13.3178 819.921L16.5338 821.325V821.313L17.9378 821.925C18.7298 822.261 20.6258 823.005 20.6258 824.721C20.6258 825.141 20.3858 825.357 20.0738 825.357C19.7018 825.357 19.4378 825.129 19.4378 824.757C19.4378 823.497 19.2218 823.113 17.9978 822.573L13.1018 824.625C12.6698 824.805 12.5018 825.105 12.4538 825.429H12.0818V822.453H12.4538C12.4538 822.921 12.6938 823.185 13.0298 823.065L16.2098 821.853L13.5578 820.761C12.8858 820.473 12.5258 820.785 12.4538 821.373H12.0818L12.0818 819.009ZM13.1378 815.667C12.7658 815.667 12.6458 815.739 12.6458 816.123C12.6458 816.255 12.6578 816.483 12.6698 816.603H12.2498C12.1058 816.195 11.9018 815.379 11.9018 814.899C11.9018 814.395 12.1418 814.239 12.6458 814.239H12.8618C12.1658 813.615 11.9378 812.991 11.9378 812.367C11.9378 811.059 12.9578 810.159 14.6498 810.159C16.7858 810.159 18.0818 811.587 18.0818 813.627C18.0818 813.855 18.0698 814.047 18.0458 814.239H19.4018C19.7618 814.239 19.9538 814.119 20.0018 813.831C20.0258 813.747 20.0378 813.363 20.0498 813.159H20.5178V816.471H20.0738C20.0618 816.303 20.0498 816.111 19.9898 815.979C19.9178 815.763 19.7378 815.667 19.4018 815.667H13.1378ZM12.9338 813.135C12.9338 813.447 13.0058 813.795 13.2218 814.239H17.1818C17.3018 813.939 17.3858 813.567 17.3858 813.195C17.3858 812.055 16.3538 811.563 15.0458 811.563C13.6778 811.563 12.9338 812.115 12.9338 813.135ZM16.7978 808.567H10.0418C9.66982 808.567 9.54982 808.639 9.53782 808.987C9.53782 809.131 9.56182 809.371 9.57382 809.503H9.15382C9.00982 809.095 8.80582 808.279 8.80582 807.811C8.80582 807.295 9.03382 807.139 9.53782 807.139H12.8738C12.2978 806.539 11.9018 805.831 11.9018 805.027C11.9018 803.959 12.4898 803.383 13.9298 803.383H16.7978C17.1338 803.383 17.3018 803.287 17.3858 803.071C17.4338 802.963 17.4458 802.831 17.4698 802.591H17.9138V805.615H17.4698C17.4578 805.447 17.4458 805.255 17.3858 805.123C17.3138 804.907 17.1338 804.811 16.7978 804.811H14.3258C13.4258 804.811 12.9338 805.027 12.9338 805.975C12.9338 806.383 13.0178 806.683 13.1738 807.139H16.7978C17.1338 807.139 17.3018 807.043 17.3858 806.827C17.4338 806.719 17.4458 806.587 17.4698 806.347H17.9138V809.371H17.4698C17.4578 809.203 17.4458 809.011 17.3858 808.879C17.3138 808.663 17.1338 808.567 16.7978 808.567ZM14.7218 795.855C16.5098 795.855 18.0938 797.067 18.0938 799.035C18.0938 800.667 17.0138 801.807 15.2138 801.807C13.2098 801.807 11.9018 800.391 11.9018 798.615C11.9018 796.959 13.0178 795.855 14.7218 795.855ZM15.1178 797.415C13.6178 797.415 12.5978 797.835 12.5978 798.939C12.5978 799.959 13.4738 800.259 14.7698 800.259C16.2578 800.259 17.3978 799.863 17.3978 798.759C17.3978 797.835 16.5818 797.415 15.1178 797.415ZM12.7298 795.242H12.1418V794.198H10.9178L10.2698 792.986V792.77H12.1418V791.114H12.7298V792.77H15.8858C16.8818 792.77 17.1698 792.506 17.1698 791.642C17.1698 791.462 17.1338 791.222 17.0858 790.994H17.6378C17.8538 791.306 18.0578 791.918 18.0578 792.506C18.0578 793.454 17.6858 794.198 16.6178 794.198H12.7298V795.242ZM14.7218 784.336C16.5098 784.336 18.0938 785.548 18.0938 787.516C18.0938 789.148 17.0138 790.288 15.2138 790.288C13.2098 790.288 11.9018 788.872 11.9018 787.096C11.9018 785.44 13.0178 784.336 14.7218 784.336ZM15.1178 785.896C13.6178 785.896 12.5978 786.316 12.5978 787.42C12.5978 788.44 13.4738 788.74 14.7698 788.74C16.2578 788.74 17.3978 788.344 17.3978 787.24C17.3978 786.316 16.5818 785.896 15.1178 785.896Z" fill="black"/>
<g clip-path="url(#clip2_154_165)">
<path d="M292.586 831.583H281.586L287.086 850.056" fill="black"/>
</g>
<path d="M281.586 795.428V794.139H289.104L288.53 792.563L289.567 792.159L290.375 794.391V795.428H281.586ZM281.586 802.881V797.491H282.371C282.989 798.206 283.547 798.811 284.047 799.307C284.547 799.803 285.004 800.204 285.418 800.508C285.832 800.817 286.219 801.042 286.578 801.182C286.942 801.327 287.293 801.399 287.633 801.399C287.989 801.399 288.301 801.333 288.571 801.2C288.84 801.067 289.049 800.88 289.198 800.637C289.346 800.399 289.42 800.124 289.42 799.811C289.42 799.452 289.317 799.108 289.11 798.78C288.906 798.452 288.625 798.18 288.266 797.965L289.074 797.28C289.543 797.596 289.906 797.997 290.164 798.481C290.422 798.969 290.551 799.489 290.551 800.04C290.551 800.551 290.438 801.008 290.211 801.411C289.989 801.817 289.678 802.135 289.28 802.366C288.881 802.6 288.416 802.717 287.885 802.717C287.475 802.717 287.055 802.643 286.625 802.495C286.199 802.346 285.768 802.126 285.33 801.833C284.897 801.544 284.461 801.184 284.024 800.755C283.586 800.329 283.151 799.84 282.717 799.29V802.881H281.586Z" fill="black"/>
<path d="M289.25 517.423C289.586 517.423 289.754 517.315 289.838 517.111C289.886 517.003 289.898 516.727 289.922 516.487H290.402V519.931H289.922C289.91 519.775 289.898 519.439 289.838 519.319C289.766 519.091 289.574 519.007 289.25 519.007H283.238C282.902 519.007 282.734 519.103 282.65 519.319C282.602 519.427 282.59 519.691 282.566 519.931H282.086V516.487H282.566C282.578 516.655 282.59 516.979 282.65 517.111C282.722 517.327 282.914 517.423 283.238 517.423H286.106V513.751H283.238C282.902 513.751 282.734 513.859 282.65 514.075C282.602 514.183 282.59 514.447 282.566 514.687H282.086V511.243H282.566C282.578 511.399 282.59 511.735 282.65 511.855C282.722 512.083 282.914 512.167 283.238 512.167H289.25C289.586 512.167 289.754 512.071 289.838 511.855C289.886 511.747 289.898 511.483 289.922 511.243H290.402V514.687H289.922C289.91 514.519 289.898 514.195 289.838 514.063C289.766 513.847 289.574 513.751 289.25 513.751H286.73V517.423H289.25ZM285.938 525.554H283.274C282.674 525.554 282.518 525.818 282.518 526.31C282.518 526.37 282.518 526.43 282.53 526.514H282.206C282.074 526.214 281.942 525.866 281.942 525.362C281.942 524.402 282.362 524.126 282.974 524.126H282.986C282.386 523.742 281.954 523.07 281.954 522.326C281.954 521.486 282.494 520.85 283.382 520.85C284.282 520.85 284.786 521.498 285.074 522.71L285.41 524.126H285.662C286.622 524.126 286.994 523.838 286.994 522.902C286.994 522.386 286.886 521.642 286.742 521.03H287.378C287.798 521.81 288.062 522.818 288.062 523.646C288.062 524.894 287.438 525.554 285.938 525.554ZM283.79 522.23C283.286 522.23 282.998 522.53 282.998 523.13C282.998 523.466 283.106 523.862 283.238 524.126H284.87L284.678 523.37C284.486 522.614 284.282 522.23 283.79 522.23ZM286.862 527.756C287.234 527.756 287.354 527.684 287.354 527.3C287.354 527.168 287.342 526.94 287.33 526.82H287.75C287.894 527.228 288.098 528.044 288.098 528.524C288.098 529.028 287.858 529.184 287.354 529.184H287.138C287.834 529.808 288.062 530.432 288.062 531.056C288.062 532.364 287.042 533.264 285.35 533.264C283.214 533.264 281.918 531.836 281.918 529.796C281.918 529.568 281.93 529.376 281.954 529.184H280.598C280.238 529.184 280.046 529.304 279.998 529.592C279.974 529.676 279.962 530.06 279.95 530.264H279.482V526.952H279.926C279.938 527.12 279.95 527.312 280.01 527.444C280.082 527.66 280.262 527.756 280.598 527.756H286.862ZM287.066 530.288C287.066 529.976 286.994 529.628 286.778 529.184H282.818C282.698 529.484 282.614 529.856 282.614 530.228C282.614 531.368 283.646 531.86 284.954 531.86C286.322 531.86 287.066 531.308 287.066 530.288ZM286.862 534.916C287.234 534.916 287.354 534.844 287.354 534.46C287.354 534.328 287.342 534.1 287.33 533.98H287.75C287.894 534.388 288.098 535.204 288.098 535.684C288.098 536.188 287.858 536.344 287.354 536.344H287.138C287.834 536.968 288.062 537.592 288.062 538.216C288.062 539.524 287.042 540.424 285.35 540.424C283.214 540.424 281.918 538.996 281.918 536.956C281.918 536.728 281.93 536.536 281.954 536.344H280.598C280.238 536.344 280.046 536.464 279.998 536.752C279.974 536.836 279.962 537.22 279.95 537.424H279.482V534.112H279.926C279.938 534.28 279.95 534.472 280.01 534.604C280.082 534.82 280.262 534.916 280.598 534.916H286.862ZM287.066 537.448C287.066 537.136 286.994 536.788 286.778 536.344H282.818C282.698 536.644 282.614 537.016 282.614 537.388C282.614 538.528 283.646 539.02 284.954 539.02C286.322 539.02 287.066 538.468 287.066 537.448ZM287.918 547.324H287.546C287.45 546.904 287.102 546.592 286.682 546.412L283.466 545.008V545.02L282.062 544.408C281.27 544.072 279.374 543.328 279.374 541.612C279.374 541.192 279.614 540.976 279.926 540.976C280.298 540.976 280.562 541.204 280.562 541.576C280.562 542.836 280.778 543.22 282.002 543.76L286.898 541.708C287.33 541.528 287.498 541.228 287.546 540.904H287.918V543.88H287.546C287.546 543.412 287.306 543.148 286.97 543.268L283.79 544.48L286.442 545.572C287.114 545.86 287.474 545.548 287.546 544.96H287.918V547.324ZM286.862 550.666C287.234 550.666 287.354 550.594 287.354 550.21C287.354 550.078 287.342 549.85 287.33 549.73H287.75C287.894 550.138 288.098 550.954 288.098 551.434C288.098 551.938 287.858 552.094 287.354 552.094H287.138C287.834 552.718 288.062 553.342 288.062 553.966C288.062 555.274 287.042 556.174 285.35 556.174C283.214 556.174 281.918 554.746 281.918 552.706C281.918 552.478 281.93 552.286 281.954 552.094H280.598C280.238 552.094 280.046 552.214 279.998 552.502C279.974 552.586 279.962 552.97 279.95 553.174H279.482V549.862H279.926C279.938 550.03 279.95 550.222 280.01 550.354C280.082 550.57 280.262 550.666 280.598 550.666H286.862ZM287.066 553.198C287.066 552.886 286.994 552.538 286.778 552.094H282.818C282.698 552.394 282.614 552.766 282.614 553.138C282.614 554.278 283.646 554.77 284.954 554.77C286.322 554.77 287.066 554.218 287.066 553.198ZM283.202 557.767H289.958C290.33 557.767 290.45 557.695 290.462 557.347C290.462 557.203 290.438 556.963 290.426 556.831H290.846C290.99 557.239 291.194 558.055 291.194 558.523C291.194 559.039 290.966 559.195 290.462 559.195H287.126C287.702 559.795 288.098 560.503 288.098 561.307C288.098 562.375 287.51 562.951 286.07 562.951H283.202C282.866 562.951 282.698 563.047 282.614 563.263C282.566 563.371 282.554 563.503 282.53 563.743H282.086V560.719H282.53C282.542 560.887 282.554 561.079 282.614 561.211C282.686 561.427 282.866 561.523 283.202 561.523H285.674C286.574 561.523 287.066 561.307 287.066 560.359C287.066 559.951 286.982 559.651 286.826 559.195H283.202C282.866 559.195 282.698 559.291 282.614 559.507C282.566 559.615 282.554 559.747 282.53 559.987H282.086V556.963H282.53C282.542 557.131 282.554 557.323 282.614 557.455C282.686 557.671 282.866 557.767 283.202 557.767ZM285.278 570.478C283.49 570.478 281.906 569.266 281.906 567.298C281.906 565.666 282.986 564.526 284.786 564.526C286.79 564.526 288.098 565.942 288.098 567.718C288.098 569.374 286.982 570.478 285.278 570.478ZM284.882 568.918C286.382 568.918 287.402 568.498 287.402 567.394C287.402 566.374 286.526 566.074 285.23 566.074C283.742 566.074 282.602 566.47 282.602 567.574C282.602 568.498 283.418 568.918 284.882 568.918ZM287.27 571.092H287.858V572.136H289.082L289.73 573.348V573.564H287.858V575.22H287.27V573.564H284.114C283.118 573.564 282.83 573.828 282.83 574.692C282.83 574.872 282.866 575.112 282.914 575.34H282.362C282.146 575.028 281.942 574.416 281.942 573.828C281.942 572.88 282.314 572.136 283.382 572.136H287.27V571.092ZM285.278 581.997C283.49 581.997 281.906 580.785 281.906 578.817C281.906 577.185 282.986 576.045 284.786 576.045C286.79 576.045 288.098 577.461 288.098 579.237C288.098 580.893 286.982 581.997 285.278 581.997ZM284.882 580.437C286.382 580.437 287.402 580.017 287.402 578.913C287.402 577.893 286.526 577.593 285.23 577.593C283.742 577.593 282.602 577.989 282.602 579.093C282.602 580.017 283.418 580.437 284.882 580.437Z" fill="black"/>
<g clip-path="url(#clip3_154_165)">
<path d="M292.586 465.25H281.586L287.086 483.722" fill="black"/>
</g>
<path d="M281.586 429.095V427.806H289.104L288.53 426.23L289.567 425.826L290.375 428.058V429.095H281.586ZM281.586 436.548V431.158H282.371C282.989 431.872 283.547 432.478 284.047 432.974C284.547 433.47 285.004 433.87 285.418 434.175C285.832 434.484 286.219 434.708 286.578 434.849C286.942 434.994 287.293 435.066 287.633 435.066C287.989 435.066 288.301 434.999 288.571 434.867C288.84 434.734 289.049 434.546 289.198 434.304C289.346 434.066 289.42 433.79 289.42 433.478C289.42 433.119 289.317 432.775 289.11 432.447C288.906 432.119 288.625 431.847 288.266 431.632L289.074 430.947C289.543 431.263 289.906 431.663 290.164 432.148C290.422 432.636 290.551 433.156 290.551 433.706C290.551 434.218 290.438 434.675 290.211 435.078C289.989 435.484 289.678 435.802 289.28 436.033C288.881 436.267 288.416 436.384 287.885 436.384C287.475 436.384 287.055 436.31 286.625 436.161C286.199 436.013 285.768 435.792 285.33 435.499C284.897 435.21 284.461 434.851 284.024 434.421C283.586 433.995 283.151 433.507 282.717 432.956V436.548H281.586Z" fill="black"/>
<path d="M289.25 151.089C289.586 151.089 289.754 150.981 289.838 150.777C289.886 150.669 289.898 150.393 289.922 150.153H290.402V153.597H289.922C289.91 153.441 289.898 153.105 289.838 152.985C289.766 152.757 289.574 152.673 289.25 152.673H283.238C282.902 152.673 282.734 152.769 282.65 152.985C282.602 153.093 282.59 153.357 282.566 153.597H282.086V150.153H282.566C282.578 150.321 282.59 150.645 282.65 150.777C282.722 150.993 282.914 151.089 283.238 151.089H286.106V147.417H283.238C282.902 147.417 282.734 147.525 282.65 147.741C282.602 147.849 282.59 148.113 282.566 148.353H282.086V144.909H282.566C282.578 145.065 282.59 145.401 282.65 145.521C282.722 145.749 282.914 145.833 283.238 145.833H289.25C289.586 145.833 289.754 145.737 289.838 145.521C289.886 145.413 289.898 145.149 289.922 144.909H290.402V148.353H289.922C289.91 148.185 289.898 147.861 289.838 147.729C289.766 147.513 289.574 147.417 289.25 147.417H286.73V151.089H289.25ZM285.938 159.22H283.274C282.674 159.22 282.518 159.484 282.518 159.976C282.518 160.036 282.518 160.096 282.53 160.18H282.206C282.074 159.88 281.942 159.532 281.942 159.028C281.942 158.068 282.362 157.792 282.974 157.792H282.986C282.386 157.408 281.954 156.736 281.954 155.992C281.954 155.152 282.494 154.516 283.382 154.516C284.282 154.516 284.786 155.164 285.074 156.376L285.41 157.792H285.662C286.622 157.792 286.994 157.504 286.994 156.568C286.994 156.052 286.886 155.308 286.742 154.696H287.378C287.798 155.476 288.062 156.484 288.062 157.312C288.062 158.56 287.438 159.22 285.938 159.22ZM283.79 155.896C283.286 155.896 282.998 156.196 282.998 156.796C282.998 157.132 283.106 157.528 283.238 157.792H284.87L284.678 157.036C284.486 156.28 284.282 155.896 283.79 155.896ZM286.862 161.423C287.234 161.423 287.354 161.351 287.354 160.967C287.354 160.835 287.342 160.607 287.33 160.487H287.75C287.894 160.895 288.098 161.711 288.098 162.191C288.098 162.695 287.858 162.851 287.354 162.851H287.138C287.834 163.475 288.062 164.099 288.062 164.723C288.062 166.031 287.042 166.931 285.35 166.931C283.214 166.931 281.918 165.503 281.918 163.463C281.918 163.235 281.93 163.043 281.954 162.851H280.598C280.238 162.851 280.046 162.971 279.998 163.259C279.974 163.343 279.962 163.727 279.95 163.931H279.482V160.619H279.926C279.938 160.787 279.95 160.979 280.01 161.111C280.082 161.327 280.262 161.423 280.598 161.423H286.862ZM287.066 163.955C287.066 163.643 286.994 163.295 286.778 162.851H282.818C282.698 163.151 282.614 163.523 282.614 163.895C282.614 165.035 283.646 165.527 284.954 165.527C286.322 165.527 287.066 164.975 287.066 163.955ZM286.862 168.583C287.234 168.583 287.354 168.511 287.354 168.127C287.354 167.995 287.342 167.767 287.33 167.647H287.75C287.894 168.055 288.098 168.871 288.098 169.351C288.098 169.855 287.858 170.011 287.354 170.011H287.138C287.834 170.635 288.062 171.259 288.062 171.883C288.062 173.191 287.042 174.091 285.35 174.091C283.214 174.091 281.918 172.663 281.918 170.623C281.918 170.395 281.93 170.203 281.954 170.011H280.598C280.238 170.011 280.046 170.131 279.998 170.419C279.974 170.503 279.962 170.887 279.95 171.091H279.482V167.779H279.926C279.938 167.947 279.95 168.139 280.01 168.271C280.082 168.487 280.262 168.583 280.598 168.583H286.862ZM287.066 171.115C287.066 170.803 286.994 170.455 286.778 170.011H282.818C282.698 170.311 282.614 170.683 282.614 171.055C282.614 172.195 283.646 172.687 284.954 172.687C286.322 172.687 287.066 172.135 287.066 171.115ZM287.918 180.991H287.546C287.45 180.571 287.102 180.259 286.682 180.079L283.466 178.675V178.687L282.062 178.075C281.27 177.739 279.374 176.995 279.374 175.279C279.374 174.859 279.614 174.643 279.926 174.643C280.298 174.643 280.562 174.871 280.562 175.243C280.562 176.503 280.778 176.887 282.002 177.427L286.898 175.375C287.33 175.195 287.498 174.895 287.546 174.571H287.918V177.547H287.546C287.546 177.079 287.306 176.815 286.97 176.935L283.79 178.147L286.442 179.239C287.114 179.527 287.474 179.215 287.546 178.627H287.918V180.991ZM286.862 184.333C287.234 184.333 287.354 184.261 287.354 183.877C287.354 183.745 287.342 183.517 287.33 183.397H287.75C287.894 183.805 288.098 184.621 288.098 185.101C288.098 185.605 287.858 185.761 287.354 185.761H287.138C287.834 186.385 288.062 187.009 288.062 187.633C288.062 188.941 287.042 189.841 285.35 189.841C283.214 189.841 281.918 188.413 281.918 186.373C281.918 186.145 281.93 185.953 281.954 185.761H280.598C280.238 185.761 280.046 185.881 279.998 186.169C279.974 186.253 279.962 186.637 279.95 186.841H279.482V183.529H279.926C279.938 183.697 279.95 183.889 280.01 184.021C280.082 184.237 280.262 184.333 280.598 184.333H286.862ZM287.066 186.865C287.066 186.553 286.994 186.205 286.778 185.761H282.818C282.698 186.061 282.614 186.433 282.614 186.805C282.614 187.945 283.646 188.437 284.954 188.437C286.322 188.437 287.066 187.885 287.066 186.865ZM283.202 191.433H289.958C290.33 191.433 290.45 191.361 290.462 191.013C290.462 190.869 290.438 190.629 290.426 190.497H290.846C290.99 190.905 291.194 191.721 291.194 192.189C291.194 192.705 290.966 192.861 290.462 192.861H287.126C287.702 193.461 288.098 194.169 288.098 194.973C288.098 196.041 287.51 196.617 286.07 196.617H283.202C282.866 196.617 282.698 196.713 282.614 196.929C282.566 197.037 282.554 197.169 282.53 197.409H282.086V194.385H282.53C282.542 194.553 282.554 194.745 282.614 194.877C282.686 195.093 282.866 195.189 283.202 195.189H285.674C286.574 195.189 287.066 194.973 287.066 194.025C287.066 193.617 286.982 193.317 286.826 192.861H283.202C282.866 192.861 282.698 192.957 282.614 193.173C282.566 193.281 282.554 193.413 282.53 193.653H282.086V190.629H282.53C282.542 190.797 282.554 190.989 282.614 191.121C282.686 191.337 282.866 191.433 283.202 191.433ZM285.278 204.145C283.49 204.145 281.906 202.933 281.906 200.965C281.906 199.333 282.986 198.193 284.786 198.193C286.79 198.193 288.098 199.609 288.098 201.385C288.098 203.041 286.982 204.145 285.278 204.145ZM284.882 202.585C286.382 202.585 287.402 202.165 287.402 201.061C287.402 200.041 286.526 199.741 285.23 199.741C283.742 199.741 282.602 200.137 282.602 201.241C282.602 202.165 283.418 202.585 284.882 202.585ZM287.27 204.758H287.858V205.802H289.082L289.73 207.014V207.23H287.858V208.886H287.27V207.23H284.114C283.118 207.23 282.83 207.494 282.83 208.358C282.83 208.538 282.866 208.778 282.914 209.006H282.362C282.146 208.694 281.942 208.082 281.942 207.494C281.942 206.546 282.314 205.802 283.382 205.802H287.27V204.758ZM285.278 215.664C283.49 215.664 281.906 214.452 281.906 212.484C281.906 210.852 282.986 209.712 284.786 209.712C286.79 209.712 288.098 211.128 288.098 212.904C288.098 214.56 286.982 215.664 285.278 215.664ZM284.882 214.104C286.382 214.104 287.402 213.684 287.402 212.58C287.402 211.56 286.526 211.26 285.23 211.26C283.742 211.26 282.602 211.656 282.602 212.76C282.602 213.684 283.418 214.104 284.882 214.104Z" fill="black"/>
<g clip-path="url(#clip4_154_165)">
<path d="M292.586 98.9167H281.586L287.086 117.389" fill="black"/>
</g>
<path d="M281.586 62.7617V61.4727H289.104L288.53 59.8965L289.567 59.4922L290.375 61.7246V62.7617H281.586ZM281.586 70.2148V64.8242H282.371C282.989 65.5391 283.547 66.1445 284.047 66.6406C284.547 67.1367 285.004 67.5371 285.418 67.8418C285.832 68.1504 286.219 68.375 286.578 68.5156C286.942 68.6602 287.293 68.7324 287.633 68.7324C287.989 68.7324 288.301 68.666 288.571 68.5332C288.84 68.4004 289.049 68.2129 289.198 67.9707C289.346 67.7324 289.42 67.457 289.42 67.1445C289.42 66.7852 289.317 66.4414 289.11 66.1133C288.906 65.7852 288.625 65.5137 288.266 65.2988L289.074 64.6133C289.543 64.9297 289.906 65.3301 290.164 65.8145C290.422 66.3027 290.551 66.8223 290.551 67.373C290.551 67.8848 290.438 68.3418 290.211 68.7441C289.989 69.1504 289.678 69.4688 289.28 69.6992C288.881 69.9336 288.416 70.0508 287.885 70.0508C287.475 70.0508 287.055 69.9766 286.625 69.8281C286.199 69.6797 285.768 69.459 285.33 69.166C284.897 68.877 284.461 68.5176 284.024 68.0879C283.586 67.6621 283.151 67.1738 282.717 66.623V70.2148H281.586Z" fill="black"/>
<defs>
<clipPath id="clip0_154_165">
<rect width="12" height="23.3333" fill="white" transform="translate(6.91382 148)"/>
</clipPath>
<clipPath id="clip1_154_165">
<rect width="12" height="23.3333" fill="white" transform="translate(6.91382 514.333)"/>
</clipPath>
<clipPath id="clip2_154_165">
<rect width="12" height="23.3333" fill="white" transform="matrix(-1 0 0 -1 293.086 852)"/>
</clipPath>
<clipPath id="clip3_154_165">
<rect width="12" height="23.3333" fill="white" transform="matrix(-1 0 0 -1 293.086 485.667)"/>
</clipPath>
<clipPath id="clip4_154_165">
<rect width="12" height="23.3333" fill="white" transform="matrix(-1 0 0 -1 293.086 119.333)"/>
</clipPath>
</defs>
</svg>
