<svg width="25" height="824" viewBox="0 0 25 824" fill="none" xmlns="http://www.w3.org/2000/svg">
<path d="M18.5 780.583H7.5L13 799.056" fill="black"/>
<path d="M7.5 744.428V743.139H15.0176L14.4434 741.563L15.4805 741.159L16.2891 743.391L16.2891 744.428H7.5ZM7.5 751.882L7.5 746.491H8.28516C8.90234 747.206 9.46094 747.811 9.96094 748.307C10.4609 748.803 10.918 749.204 11.332 749.508C11.7461 749.817 12.1328 750.042 12.4922 750.182C12.8555 750.327 13.207 750.399 13.5469 750.399C13.9023 750.399 14.2148 750.333 14.4844 750.2C14.7539 750.067 14.9629 749.88 15.1113 749.637C15.2598 749.399 15.334 749.124 15.334 748.811C15.334 748.452 15.2305 748.108 15.0234 747.78C14.8203 747.452 14.5391 747.18 14.1797 746.965L14.9883 746.28C15.457 746.596 15.8203 746.997 16.0781 747.481C16.3359 747.969 16.4648 748.489 16.4648 749.04C16.4648 749.551 16.3516 750.008 16.125 750.411C15.9023 750.817 15.5918 751.135 15.1934 751.366C14.7949 751.6 14.3301 751.717 13.7988 751.717C13.3887 751.717 12.9687 751.643 12.5391 751.495C12.1133 751.346 11.6816 751.126 11.2441 750.833C10.8105 750.544 10.375 750.184 9.9375 749.755C9.5 749.329 9.06445 748.84 8.63086 748.29V751.882H7.5Z" fill="black"/>
<path d="M15.164 466.423C15.5 466.423 15.668 466.315 15.752 466.111C15.8 466.003 15.812 465.727 15.836 465.487H16.316V468.931H15.836C15.824 468.775 15.812 468.439 15.752 468.319C15.68 468.091 15.488 468.007 15.164 468.007H9.152C8.816 468.007 8.648 468.103 8.564 468.319C8.516 468.427 8.504 468.691 8.48 468.931H8V465.487H8.48C8.492 465.655 8.504 465.979 8.564 466.111C8.636 466.327 8.828 466.423 9.152 466.423H12.02L12.02 462.751H9.152C8.816 462.751 8.648 462.859 8.564 463.075C8.516 463.183 8.504 463.447 8.48 463.687H8V460.243H8.48C8.492 460.399 8.504 460.735 8.564 460.855C8.636 461.083 8.828 461.167 9.152 461.167H15.164C15.5 461.167 15.668 461.071 15.752 460.855C15.8 460.747 15.812 460.483 15.836 460.243H16.316V463.687H15.836C15.824 463.519 15.812 463.195 15.752 463.063C15.68 462.847 15.488 462.751 15.164 462.751H12.644L12.644 466.423H15.164ZM11.852 474.554H9.188C8.588 474.554 8.432 474.818 8.432 475.31C8.432 475.37 8.432 475.43 8.444 475.514H8.12C7.988 475.214 7.856 474.866 7.856 474.362C7.856 473.402 8.276 473.126 8.888 473.126H8.9C8.3 472.742 7.868 472.07 7.868 471.326C7.868 470.486 8.408 469.85 9.296 469.85C10.196 469.85 10.7 470.498 10.988 471.71L11.324 473.126H11.576C12.536 473.126 12.908 472.838 12.908 471.902C12.908 471.386 12.8 470.642 12.656 470.03H13.292C13.712 470.81 13.976 471.818 13.976 472.646C13.976 473.894 13.352 474.554 11.852 474.554ZM9.704 471.23C9.2 471.23 8.912 471.53 8.912 472.13C8.912 472.466 9.02 472.862 9.152 473.126H10.784L10.592 472.37C10.4 471.614 10.196 471.23 9.704 471.23ZM12.776 476.756C13.148 476.756 13.268 476.684 13.268 476.3C13.268 476.168 13.256 475.94 13.244 475.82H13.664C13.808 476.228 14.012 477.044 14.012 477.524C14.012 478.028 13.772 478.184 13.268 478.184H13.052C13.748 478.808 13.976 479.432 13.976 480.056C13.976 481.364 12.956 482.264 11.264 482.264C9.128 482.264 7.832 480.836 7.832 478.796C7.832 478.568 7.844 478.376 7.868 478.184H6.512C6.152 478.184 5.96 478.304 5.912 478.592C5.888 478.676 5.876 479.06 5.864 479.264H5.396V475.952H5.84C5.852 476.12 5.864 476.312 5.924 476.444C5.996 476.66 6.176 476.756 6.512 476.756H12.776ZM12.98 479.288C12.98 478.976 12.908 478.628 12.692 478.184H8.732C8.612 478.484 8.528 478.856 8.528 479.228C8.528 480.368 9.56 480.86 10.868 480.86C12.236 480.86 12.98 480.308 12.98 479.288ZM12.776 483.916C13.148 483.916 13.268 483.844 13.268 483.46C13.268 483.328 13.256 483.1 13.244 482.98H13.664C13.808 483.388 14.012 484.204 14.012 484.684C14.012 485.188 13.772 485.344 13.268 485.344H13.052C13.748 485.968 13.976 486.592 13.976 487.216C13.976 488.524 12.956 489.424 11.264 489.424C9.128 489.424 7.832 487.996 7.832 485.956C7.832 485.728 7.844 485.536 7.868 485.344H6.512C6.152 485.344 5.96 485.464 5.912 485.752C5.888 485.836 5.876 486.22 5.864 486.424H5.396L5.396 483.112H5.84C5.852 483.28 5.864 483.472 5.924 483.604C5.996 483.82 6.176 483.916 6.512 483.916H12.776ZM12.98 486.448C12.98 486.136 12.908 485.788 12.692 485.344H8.732C8.612 485.644 8.528 486.016 8.528 486.388C8.528 487.528 9.56 488.02 10.868 488.02C12.236 488.02 12.98 487.468 12.98 486.448ZM13.832 496.324H13.46C13.364 495.904 13.016 495.592 12.596 495.412L9.38 494.008V494.02L7.976 493.408C7.184 493.072 5.288 492.328 5.288 490.612C5.288 490.192 5.528 489.976 5.84 489.976C6.212 489.976 6.476 490.204 6.476 490.576C6.476 491.836 6.692 492.22 7.916 492.76L12.812 490.708C13.244 490.528 13.412 490.228 13.46 489.904H13.832L13.832 492.88H13.46C13.46 492.412 13.22 492.148 12.884 492.268L9.704 493.48L12.356 494.572C13.028 494.86 13.388 494.548 13.46 493.96H13.832V496.324ZM12.776 499.666C13.148 499.666 13.268 499.594 13.268 499.21C13.268 499.078 13.256 498.85 13.244 498.73H13.664C13.808 499.138 14.012 499.954 14.012 500.434C14.012 500.938 13.772 501.094 13.268 501.094H13.052C13.748 501.718 13.976 502.342 13.976 502.966C13.976 504.274 12.956 505.174 11.264 505.174C9.128 505.174 7.832 503.746 7.832 501.706C7.832 501.478 7.844 501.286 7.868 501.094H6.512C6.152 501.094 5.96 501.214 5.912 501.502C5.888 501.586 5.876 501.97 5.864 502.174H5.396V498.862H5.84C5.852 499.03 5.864 499.222 5.924 499.354C5.996 499.57 6.176 499.666 6.512 499.666H12.776ZM12.98 502.198C12.98 501.886 12.908 501.538 12.692 501.094H8.732C8.612 501.394 8.528 501.766 8.528 502.138C8.528 503.278 9.56 503.77 10.868 503.77C12.236 503.77 12.98 503.218 12.98 502.198ZM9.116 506.766H15.872C16.244 506.766 16.364 506.694 16.376 506.346C16.376 506.202 16.352 505.962 16.34 505.83H16.76C16.904 506.238 17.108 507.054 17.108 507.522C17.108 508.038 16.88 508.194 16.376 508.194H13.04C13.616 508.794 14.012 509.502 14.012 510.306C14.012 511.374 13.424 511.95 11.984 511.95H9.116C8.78 511.95 8.612 512.046 8.528 512.262C8.48 512.37 8.468 512.502 8.444 512.743H8V509.718H8.444C8.456 509.886 8.468 510.078 8.528 510.21C8.6 510.426 8.78 510.522 9.116 510.522H11.588C12.488 510.522 12.98 510.306 12.98 509.358C12.98 508.95 12.896 508.65 12.74 508.194H9.116C8.78 508.194 8.612 508.29 8.528 508.506C8.48 508.614 8.468 508.746 8.444 508.986H8V505.962H8.444C8.456 506.13 8.468 506.322 8.528 506.454C8.6 506.67 8.78 506.766 9.116 506.766ZM11.192 519.478C9.404 519.478 7.82 518.266 7.82 516.298C7.82 514.666 8.9 513.526 10.7 513.526C12.704 513.526 14.012 514.942 14.012 516.718C14.012 518.374 12.896 519.478 11.192 519.478ZM10.796 517.918C12.296 517.918 13.316 517.498 13.316 516.394C13.316 515.374 12.44 515.074 11.144 515.074C9.656 515.074 8.516 515.47 8.516 516.574C8.516 517.498 9.332 517.918 10.796 517.918ZM13.184 520.092H13.772V521.136H14.996L15.644 522.348V522.564H13.772V524.22H13.184V522.564H10.028C9.032 522.564 8.744 522.828 8.744 523.692C8.744 523.872 8.78 524.112 8.828 524.34H8.276C8.06 524.028 7.856 523.416 7.856 522.828C7.856 521.88 8.228 521.136 9.296 521.136H13.184V520.092ZM11.192 530.997C9.404 530.997 7.82 529.785 7.82 527.817C7.82 526.185 8.9 525.045 10.7 525.045C12.704 525.045 14.012 526.461 14.012 528.237C14.012 529.893 12.896 530.997 11.192 530.997ZM10.796 529.437C12.296 529.437 13.316 529.017 13.316 527.913C13.316 526.893 12.44 526.593 11.144 526.593C9.656 526.593 8.516 526.989 8.516 528.093C8.516 529.017 9.332 529.437 10.796 529.437Z" fill="black"/>
<path d="M18.5 414.25H7.5L13 432.722" fill="black"/>
<path d="M7.5 378.095V376.806H15.0176L14.4434 375.23L15.4805 374.826L16.2891 377.058L16.2891 378.095H7.5ZM7.5 385.548L7.5 380.158H8.28516C8.90234 380.872 9.46094 381.478 9.96094 381.974C10.4609 382.47 10.918 382.87 11.332 383.175C11.7461 383.484 12.1328 383.708 12.4922 383.849C12.8555 383.993 13.207 384.066 13.5469 384.066C13.9023 384.066 14.2148 383.999 14.4844 383.867C14.7539 383.734 14.9629 383.546 15.1113 383.304C15.2598 383.066 15.334 382.79 15.334 382.478C15.334 382.118 15.2305 381.775 15.0234 381.447C14.8203 381.118 14.5391 380.847 14.1797 380.632L14.9883 379.947C15.457 380.263 15.8203 380.663 16.0781 381.148C16.3359 381.636 16.4648 382.156 16.4648 382.706C16.4648 383.218 16.3516 383.675 16.125 384.077C15.9023 384.484 15.5918 384.802 15.1934 385.033C14.7949 385.267 14.3301 385.384 13.7988 385.384C13.3887 385.384 12.9687 385.31 12.5391 385.161C12.1133 385.013 11.6816 384.792 11.2441 384.499C10.8105 384.21 10.375 383.851 9.9375 383.421C9.5 382.995 9.06445 382.507 8.63086 381.956V385.548H7.5Z" fill="black"/>
<path d="M15.164 100.089C15.5 100.089 15.668 99.9814 15.752 99.7774C15.8 99.6694 15.812 99.3934 15.836 99.1534H16.316V102.597H15.836C15.824 102.441 15.812 102.105 15.752 101.985C15.68 101.757 15.488 101.673 15.164 101.673H9.152C8.816 101.673 8.648 101.769 8.564 101.985C8.516 102.093 8.504 102.357 8.48 102.597H8V99.1534H8.48C8.492 99.3214 8.504 99.6454 8.564 99.7774C8.636 99.9934 8.828 100.089 9.152 100.089H12.02L12.02 96.4174H9.152C8.816 96.4174 8.648 96.5254 8.564 96.7414C8.516 96.8494 8.504 97.1134 8.48 97.3534H8V93.9094H8.48C8.492 94.0654 8.504 94.4014 8.564 94.5214C8.636 94.7494 8.828 94.8334 9.152 94.8334H15.164C15.5 94.8334 15.668 94.7374 15.752 94.5214C15.8 94.4134 15.812 94.1494 15.836 93.9094H16.316V97.3534H15.836C15.824 97.1854 15.812 96.8614 15.752 96.7294C15.68 96.5134 15.488 96.4174 15.164 96.4174H12.644L12.644 100.089H15.164ZM11.852 108.22H9.188C8.588 108.22 8.432 108.484 8.432 108.976C8.432 109.036 8.432 109.096 8.444 109.18H8.12C7.988 108.88 7.856 108.532 7.856 108.028C7.856 107.068 8.276 106.792 8.888 106.792H8.9C8.3 106.408 7.868 105.736 7.868 104.992C7.868 104.152 8.408 103.516 9.296 103.516C10.196 103.516 10.7 104.164 10.988 105.376L11.324 106.792H11.576C12.536 106.792 12.908 106.504 12.908 105.568C12.908 105.052 12.8 104.308 12.656 103.696H13.292C13.712 104.476 13.976 105.484 13.976 106.312C13.976 107.56 13.352 108.22 11.852 108.22ZM9.704 104.896C9.2 104.896 8.912 105.196 8.912 105.796C8.912 106.132 9.02 106.528 9.152 106.792H10.784L10.592 106.036C10.4 105.28 10.196 104.896 9.704 104.896ZM12.776 110.423C13.148 110.423 13.268 110.351 13.268 109.967C13.268 109.835 13.256 109.607 13.244 109.487H13.664C13.808 109.895 14.012 110.711 14.012 111.191C14.012 111.695 13.772 111.851 13.268 111.851H13.052C13.748 112.475 13.976 113.099 13.976 113.723C13.976 115.031 12.956 115.931 11.264 115.931C9.128 115.931 7.832 114.503 7.832 112.463C7.832 112.235 7.844 112.043 7.868 111.851H6.512C6.152 111.851 5.96 111.971 5.912 112.259C5.888 112.343 5.876 112.727 5.864 112.931H5.396V109.619H5.84C5.852 109.787 5.864 109.979 5.924 110.111C5.996 110.327 6.176 110.423 6.512 110.423H12.776ZM12.98 112.955C12.98 112.643 12.908 112.295 12.692 111.851H8.732C8.612 112.151 8.528 112.523 8.528 112.895C8.528 114.035 9.56 114.527 10.868 114.527C12.236 114.527 12.98 113.975 12.98 112.955ZM12.776 117.583C13.148 117.583 13.268 117.511 13.268 117.127C13.268 116.995 13.256 116.767 13.244 116.647H13.664C13.808 117.055 14.012 117.871 14.012 118.351C14.012 118.855 13.772 119.011 13.268 119.011H13.052C13.748 119.635 13.976 120.259 13.976 120.883C13.976 122.191 12.956 123.091 11.264 123.091C9.128 123.091 7.832 121.663 7.832 119.623C7.832 119.395 7.844 119.203 7.868 119.011H6.512C6.152 119.011 5.96 119.131 5.912 119.419C5.888 119.503 5.876 119.887 5.864 120.091H5.396L5.396 116.779H5.84C5.852 116.947 5.864 117.139 5.924 117.271C5.996 117.487 6.176 117.583 6.512 117.583H12.776ZM12.98 120.115C12.98 119.803 12.908 119.455 12.692 119.011H8.732C8.612 119.311 8.528 119.683 8.528 120.055C8.528 121.195 9.56 121.687 10.868 121.687C12.236 121.687 12.98 121.135 12.98 120.115ZM13.832 129.991H13.46C13.364 129.571 13.016 129.259 12.596 129.079L9.38 127.675V127.687L7.976 127.075C7.184 126.739 5.288 125.995 5.288 124.279C5.288 123.859 5.528 123.643 5.84 123.643C6.212 123.643 6.476 123.871 6.476 124.243C6.476 125.503 6.692 125.887 7.916 126.427L12.812 124.375C13.244 124.195 13.412 123.895 13.46 123.571H13.832L13.832 126.547H13.46C13.46 126.079 13.22 125.815 12.884 125.935L9.704 127.147L12.356 128.239C13.028 128.527 13.388 128.215 13.46 127.627H13.832V129.991ZM12.776 133.333C13.148 133.333 13.268 133.261 13.268 132.877C13.268 132.745 13.256 132.517 13.244 132.397H13.664C13.808 132.805 14.012 133.621 14.012 134.101C14.012 134.605 13.772 134.761 13.268 134.761H13.052C13.748 135.385 13.976 136.009 13.976 136.633C13.976 137.941 12.956 138.841 11.264 138.841C9.128 138.841 7.832 137.413 7.832 135.373C7.832 135.145 7.844 134.953 7.868 134.761H6.512C6.152 134.761 5.96 134.881 5.912 135.169C5.888 135.253 5.876 135.637 5.864 135.841H5.396V132.529H5.84C5.852 132.697 5.864 132.889 5.924 133.021C5.996 133.237 6.176 133.333 6.512 133.333H12.776ZM12.98 135.865C12.98 135.553 12.908 135.205 12.692 134.761H8.732C8.612 135.061 8.528 135.433 8.528 135.805C8.528 136.945 9.56 137.437 10.868 137.437C12.236 137.437 12.98 136.885 12.98 135.865ZM9.116 140.433H15.872C16.244 140.433 16.364 140.361 16.376 140.013C16.376 139.869 16.352 139.629 16.34 139.497H16.76C16.904 139.905 17.108 140.721 17.108 141.189C17.108 141.705 16.88 141.861 16.376 141.861H13.04C13.616 142.461 14.012 143.169 14.012 143.973C14.012 145.041 13.424 145.617 11.984 145.617H9.116C8.78 145.617 8.612 145.713 8.528 145.929C8.48 146.037 8.468 146.169 8.444 146.409H8V143.385H8.444C8.456 143.553 8.468 143.745 8.528 143.877C8.6 144.093 8.78 144.189 9.116 144.189H11.588C12.488 144.189 12.98 143.973 12.98 143.025C12.98 142.617 12.896 142.317 12.74 141.861H9.116C8.78 141.861 8.612 141.957 8.528 142.173C8.48 142.281 8.468 142.413 8.444 142.653H8V139.629H8.444C8.456 139.797 8.468 139.989 8.528 140.121C8.6 140.337 8.78 140.433 9.116 140.433ZM11.192 153.145C9.404 153.145 7.82 151.933 7.82 149.965C7.82 148.333 8.9 147.193 10.7 147.193C12.704 147.193 14.012 148.609 14.012 150.385C14.012 152.041 12.896 153.145 11.192 153.145ZM10.796 151.585C12.296 151.585 13.316 151.165 13.316 150.061C13.316 149.041 12.44 148.741 11.144 148.741C9.656 148.741 8.516 149.137 8.516 150.241C8.516 151.165 9.332 151.585 10.796 151.585ZM13.184 153.758H13.772V154.802H14.996L15.644 156.014V156.23H13.772V157.886H13.184V156.23H10.028C9.032 156.23 8.744 156.494 8.744 157.358C8.744 157.538 8.78 157.778 8.828 158.006H8.276C8.06 157.694 7.856 157.082 7.856 156.494C7.856 155.546 8.228 154.802 9.296 154.802H13.184V153.758ZM11.192 164.664C9.404 164.664 7.82 163.452 7.82 161.484C7.82 159.852 8.9 158.712 10.7 158.712C12.704 158.712 14.012 160.128 14.012 161.904C14.012 163.56 12.896 164.664 11.192 164.664ZM10.796 163.104C12.296 163.104 13.316 162.684 13.316 161.58C13.316 160.56 12.44 160.26 11.144 160.26C9.656 160.26 8.516 160.656 8.516 161.76C8.516 162.684 9.332 163.104 10.796 163.104Z" fill="black"/>
<path d="M18.5 47.9167H7.5L13 66.3889" fill="black"/>
<path d="M7.5 11.7617V10.4727L15.0176 10.4727L14.4434 8.89651L15.4805 8.49222L16.2891 10.7246L16.2891 11.7617L7.5 11.7617ZM7.5 19.2149L7.5 13.8242H8.28516C8.90234 14.5391 9.46094 15.1446 9.96094 15.6407C10.4609 16.1367 10.918 16.5371 11.332 16.8418C11.7461 17.1504 12.1328 17.375 12.4922 17.5157C12.8555 17.6602 13.207 17.7325 13.5469 17.7325C13.9023 17.7325 14.2148 17.666 14.4844 17.5332C14.7539 17.4004 14.9629 17.2129 15.1113 16.9707C15.2598 16.7325 15.334 16.4571 15.334 16.1446C15.334 15.7852 15.2305 15.4414 15.0234 15.1133C14.8203 14.7852 14.5391 14.5137 14.1797 14.2989L14.9883 13.6133C15.457 13.9297 15.8203 14.3301 16.0781 14.8145C16.3359 15.3028 16.4648 15.8223 16.4648 16.3731C16.4648 16.8848 16.3516 17.3418 16.125 17.7442C15.9023 18.1504 15.5918 18.4688 15.1934 18.6992C14.7949 18.9336 14.3301 19.0508 13.7988 19.0508C13.3887 19.0508 12.9687 18.9766 12.5391 18.8282C12.1133 18.6797 11.6816 18.459 11.2441 18.166C10.8105 17.877 10.375 17.5176 9.9375 17.0879C9.5 16.6621 9.06445 16.1739 8.63086 15.6231V19.2149H7.5Z" fill="black"/>
</svg>
