<svg width="66" height="15" viewBox="0 0 66 15" fill="none" xmlns="http://www.w3.org/2000/svg">
<path d="M7.218 1.526C9.396 1.526 11.376 2.624 11.376 5C11.376 7.448 9.306 8.942 6.966 8.942H5.004V12.29C5.004 12.74 5.148 13.028 5.454 13.154C5.67 13.244 5.958 13.262 6.282 13.298V14H0.81V13.298C1.08 13.28 1.386 13.244 1.584 13.172C1.89 13.046 2.034 12.74 2.034 12.29V3.236C2.034 2.786 1.872 2.498 1.584 2.372C1.386 2.282 1.152 2.264 0.81 2.228V1.526H7.218ZM6.318 2.48H5.004V7.988H6.03C7.704 7.988 8.334 6.818 8.334 5.18C8.334 3.614 7.704 2.48 6.318 2.48ZM13.2542 12.326V2.336C13.2542 1.778 13.1822 1.598 12.6422 1.562C12.4622 1.562 12.1742 1.58 11.9402 1.598V0.967999C12.6422 0.715999 14.0462 0.337999 14.9102 0.337999C15.7742 0.337999 15.9902 0.68 15.9902 1.454V6.512C16.9262 5.54 18.0242 4.874 19.3202 4.874C21.1202 4.874 21.9302 5.828 21.9302 8.024V12.326C21.9302 12.794 22.0922 13.046 22.3802 13.19C22.5422 13.262 22.7402 13.316 23.0462 13.334V14H18.0782V13.334C18.3122 13.316 18.5822 13.28 18.7442 13.208C19.0502 13.082 19.1942 12.794 19.1942 12.326V8.798C19.1942 7.43 18.9242 6.602 17.5202 6.602C16.9982 6.602 16.5842 6.692 15.9902 6.926V12.326C15.9902 12.794 16.1522 13.046 16.4582 13.19C16.6202 13.262 16.8002 13.316 17.1062 13.334V14H12.1562V13.334C12.3902 13.316 12.6422 13.28 12.8222 13.208C13.1282 13.082 13.2542 12.794 13.2542 12.326ZM33.5836 9.14C33.5836 11.93 31.7116 14.27 28.5256 14.27C25.9516 14.27 24.0616 12.758 24.0616 9.914C24.0616 6.836 26.2936 4.874 29.2276 4.874C31.8556 4.874 33.5836 6.458 33.5836 9.14ZM30.6676 9.734C30.6676 7.448 30.1276 5.918 28.6876 5.918C27.3556 5.918 26.9776 7.232 26.9776 9.248C26.9776 11.516 27.4636 13.226 28.9216 13.226C30.1456 13.226 30.6676 12.002 30.6676 9.734ZM34.3686 6.224V5.342H35.9346V3.398L38.2926 2.354H38.6706V5.342H41.1546V6.224H38.6706V10.76C38.6706 12.254 39.0666 12.686 40.3626 12.686C40.6326 12.686 40.9926 12.632 41.3346 12.56L41.3526 13.442C40.8846 13.766 39.8226 14.234 38.5626 14.234C37.0866 14.234 35.9346 13.604 35.9346 12.002V6.224H34.3686ZM51.7418 9.14C51.7418 11.93 49.8698 14.27 46.6838 14.27C44.1098 14.27 42.2198 12.758 42.2198 9.914C42.2198 6.836 44.4518 4.874 47.3858 4.874C50.0138 4.874 51.7418 6.458 51.7418 9.14ZM48.8258 9.734C48.8258 7.448 48.2858 5.918 46.8458 5.918C45.5138 5.918 45.1358 7.232 45.1358 9.248C45.1358 11.516 45.6218 13.226 47.0798 13.226C48.3038 13.226 48.8258 12.002 48.8258 9.734ZM57.0353 3.236V12.29C57.0353 12.758 57.1793 13.01 57.4853 13.154C57.6473 13.226 57.9533 13.262 58.2593 13.298V14H52.8413V13.298C53.0933 13.28 53.4353 13.244 53.6153 13.172C53.9213 13.028 54.0653 12.758 54.0653 12.29V3.236C54.0653 2.768 53.9033 2.516 53.6153 2.372C53.4533 2.3 53.1473 2.264 52.8413 2.228V1.526H58.2593V2.228C58.0073 2.246 57.6473 2.282 57.4673 2.354C57.1613 2.498 57.0353 2.768 57.0353 3.236ZM58.9604 6.224V5.342H60.5264V3.398L62.8844 2.354H63.2624V5.342H65.7464V6.224H63.2624V10.76C63.2624 12.254 63.6584 12.686 64.9544 12.686C65.2244 12.686 65.5844 12.632 65.9264 12.56L65.9444 13.442C65.4764 13.766 64.4144 14.234 63.1544 14.234C61.6784 14.234 60.5264 13.604 60.5264 12.002V6.224H58.9604Z" fill="black"/>
</svg>
